<svg xmlns="http://www.w3.org/2000/svg" xmlns:xlink="http://www.w3.org/1999/xlink" viewBox="0 0 64 64"><linearGradient id="XgAK3dNNk6oun4C9JQRRWa" x1="32" x2="32" y1="7.438" y2="18.319" gradientUnits="userSpaceOnUse"><stop offset="0" stop-color="#6dc7ff"/><stop offset="1" stop-color="#e6abff"/></linearGradient><rect width="6" height="9" x="29" y="8" fill="url(#XgAK3dNNk6oun4C9JQRRWa)"/><linearGradient id="XgAK3dNNk6oun4C9JQRRWb" x1="32" x2="32" y1="5.638" y2="55.254" gradientUnits="userSpaceOnUse"><stop offset="0" stop-color="#1a6dff"/><stop offset="1" stop-color="#c822ff"/></linearGradient><path fill="url(#XgAK3dNNk6oun4C9JQRRWb)" d="M49,10h-2c0-1.103-0.897-2-2-2h-8c0-1.103-0.897-2-2-2h-6c-1.103,0-2,0.897-2,2h-8 c-1.103,0-2,0.897-2,2h-2c-1.103,0-2,0.897-2,2v44c0,1.103,0.897,2,2,2h34c1.103,0,2-0.897,2-2V12C51,10.897,50.103,10,49,10z M29,8h6v5c0,1.654-1.346,3-3,3s-3-1.346-3-3V8z M15,56V12h12v1c0,2.757,2.243,5,5,5s5-2.243,5-5v-1h12v28v4H39 c-1.103,0-2,0.897-2,2v10h-3H15z M49,56H39V46h10V56z"/><linearGradient id="XgAK3dNNk6oun4C9JQRRWc" x1="26" x2="26" y1="5.638" y2="55.254" gradientUnits="userSpaceOnUse"><stop offset="0" stop-color="#1a6dff"/><stop offset="1" stop-color="#c822ff"/></linearGradient><path fill="url(#XgAK3dNNk6oun4C9JQRRWc)" d="M30.725,28.563C30.889,28.068,31,27.549,31,27v-2c0-2.757-2.243-5-5-5s-5,2.243-5,5v2 c0,0.549,0.111,1.068,0.275,1.563C19.221,30.068,18,32.424,18,35v2h16v-2C34,32.434,32.778,30.07,30.725,28.563z M23,25 c0-1.654,1.346-3,3-3s3,1.346,3,3v2c0,1.654-1.346,3-3,3s-3-1.346-3-3V25z M20,35c0-1.856,0.841-3.565,2.274-4.699 C23.191,31.335,24.513,32,26,32c1.485,0,2.807-0.664,3.724-1.696C31.156,31.439,32,33.151,32,35H20z"/><linearGradient id="XgAK3dNNk6oun4C9JQRRWd" x1="41.5" x2="41.5" y1="5.638" y2="55.254" gradientUnits="userSpaceOnUse"><stop offset="0" stop-color="#1a6dff"/><stop offset="1" stop-color="#c822ff"/></linearGradient><rect width="9" height="2" x="37" y="22" fill="url(#XgAK3dNNk6oun4C9JQRRWd)"/><linearGradient id="XgAK3dNNk6oun4C9JQRRWe" x1="39.5" x2="39.5" y1="5.638" y2="55.254" gradientUnits="userSpaceOnUse"><stop offset="0" stop-color="#1a6dff"/><stop offset="1" stop-color="#c822ff"/></linearGradient><rect width="5" height="2" x="37" y="26" fill="url(#XgAK3dNNk6oun4C9JQRRWe)"/><linearGradient id="XgAK3dNNk6oun4C9JQRRWf" x1="41.5" x2="41.5" y1="5.638" y2="55.254" gradientUnits="userSpaceOnUse"><stop offset="0" stop-color="#1a6dff"/><stop offset="1" stop-color="#c822ff"/></linearGradient><rect width="9" height="2" x="37" y="30" fill="url(#XgAK3dNNk6oun4C9JQRRWf)"/><linearGradient id="XgAK3dNNk6oun4C9JQRRWg" x1="39.5" x2="39.5" y1="5.638" y2="55.254" gradientUnits="userSpaceOnUse"><stop offset="0" stop-color="#1a6dff"/><stop offset="1" stop-color="#c822ff"/></linearGradient><rect width="5" height="2" x="37" y="34" fill="url(#XgAK3dNNk6oun4C9JQRRWg)"/><linearGradient id="XgAK3dNNk6oun4C9JQRRWh" x1="26" x2="26" y1="5.638" y2="55.254" gradientUnits="userSpaceOnUse"><stop offset="0" stop-color="#1a6dff"/><stop offset="1" stop-color="#c822ff"/></linearGradient><rect width="16" height="2" x="18" y="39" fill="url(#XgAK3dNNk6oun4C9JQRRWh)"/><linearGradient id="XgAK3dNNk6oun4C9JQRRWi" x1="23" x2="23" y1="5.638" y2="55.254" gradientUnits="userSpaceOnUse"><stop offset="0" stop-color="#1a6dff"/><stop offset="1" stop-color="#c822ff"/></linearGradient><rect width="10" height="2" x="18" y="43" fill="url(#XgAK3dNNk6oun4C9JQRRWi)"/><linearGradient id="XgAK3dNNk6oun4C9JQRRWj" x1="43" x2="43" y1="5.638" y2="55.254" gradientUnits="userSpaceOnUse"><stop offset="0" stop-color="#1a6dff"/><stop offset="1" stop-color="#c822ff"/></linearGradient><path fill="url(#XgAK3dNNk6oun4C9JQRRWj)" d="M43,50h2v-2h-2c-1.103,0-2,0.897-2,2v2h2V50z"/><linearGradient id="XgAK3dNNk6oun4C9JQRRWk" x1="19" x2="19" y1="5.638" y2="55.254" gradientUnits="userSpaceOnUse"><stop offset="0" stop-color="#1a6dff"/><stop offset="1" stop-color="#c822ff"/></linearGradient><rect width="2" height="4" x="18" y="49" fill="url(#XgAK3dNNk6oun4C9JQRRWk)"/><linearGradient id="XgAK3dNNk6oun4C9JQRRWl" x1="23" x2="23" y1="5.638" y2="55.254" gradientUnits="userSpaceOnUse"><stop offset="0" stop-color="#1a6dff"/><stop offset="1" stop-color="#c822ff"/></linearGradient><rect width="2" height="4" x="22" y="49" fill="url(#XgAK3dNNk6oun4C9JQRRWl)"/><linearGradient id="XgAK3dNNk6oun4C9JQRRWm" x1="27" x2="27" y1="5.638" y2="55.254" gradientUnits="userSpaceOnUse"><stop offset="0" stop-color="#1a6dff"/><stop offset="1" stop-color="#c822ff"/></linearGradient><rect width="2" height="4" x="26" y="49" fill="url(#XgAK3dNNk6oun4C9JQRRWm)"/><linearGradient id="XgAK3dNNk6oun4C9JQRRWn" x1="31" x2="31" y1="5.638" y2="55.254" gradientUnits="userSpaceOnUse"><stop offset="0" stop-color="#1a6dff"/><stop offset="1" stop-color="#c822ff"/></linearGradient><rect width="2" height="4" x="30" y="49" fill="url(#XgAK3dNNk6oun4C9JQRRWn)"/></svg>