<svg xmlns="http://www.w3.org/2000/svg" xmlns:xlink="http://www.w3.org/1999/xlink" viewBox="0 0 64 64"><path fill="#faefde" d="M56 22L32 7 8 22 8 55 56 55z"/><path fill="#efd8be" d="M32 7L8 22 8 28 32 13 56 28 56 22z"/><path fill="#fff8ee" d="M18 26c0 0 7-5 14-2 0 5 0 13 0 17-6-3-14 2-14 2V26zM46 26c0 0-7-5-14-2 0 5 0 13 0 17 6-3 14 2 14 2V26z"/><path fill="#8d6c9f" d="M61.53,24.15l-29-18c-0.049-0.021-0.099-0.038-0.15-0.05c-0.06-0.04-0.123-0.074-0.19-0.1 C32.127,5.994,32.063,5.994,32,6h-0.18c-0.069,0.019-0.136,0.046-0.2,0.08c-0.048,0.013-0.095,0.03-0.14,0.05l-29,18 c-0.482,0.27-0.654,0.879-0.385,1.361c0.27,0.482,0.879,0.654,1.361,0.385c0.025-0.014,0.05-0.029,0.074-0.046L7,23.69V54H4 c-0.552,0-1,0.448-1,1s0.448,1,1,1h56c0.552,0,1-0.448,1-1s-0.448-1-1-1h-3V23.69l3.47,2.16c0.457,0.31,1.079,0.191,1.389-0.265 c0.31-0.457,0.191-1.079-0.265-1.389c-0.024-0.016-0.048-0.031-0.074-0.046H61.53z M55,54H9V22.45L32,8.18l23,14.27V54z"/><path fill="#8d6c9f" d="M17 48c-.552 0-1 .448-1 1v2c0 .552.448 1 1 1s1-.448 1-1v-2C18 48.448 17.552 48 17 48zM12 48c-.552 0-1 .448-1 1v2c0 .552.448 1 1 1s1-.448 1-1v-2C13 48.448 12.552 48 12 48zM22 48c-.552 0-1 .448-1 1v2c0 .552.448 1 1 1s1-.448 1-1v-2C23 48.448 22.552 48 22 48zM27 48c-.552 0-1 .448-1 1v2c0 .552.448 1 1 1s1-.448 1-1v-2C28 48.448 27.552 48 27 48zM32 48c-.552 0-1 .448-1 1v2c0 .552.448 1 1 1s1-.448 1-1v-2C33 48.448 32.552 48 32 48zM37 48c-.552 0-1 .448-1 1v2c0 .552.448 1 1 1s1-.448 1-1v-2C38 48.448 37.552 48 37 48zM42 48c-.552 0-1 .448-1 1v2c0 .552.448 1 1 1s1-.448 1-1v-2C43 48.448 42.552 48 42 48zM47 48c-.552 0-1 .448-1 1v2c0 .552.448 1 1 1s1-.448 1-1v-2C48 48.448 47.552 48 47 48zM51 51c0 .552.448 1 1 1s1-.448 1-1v-2c0-.552-.448-1-1-1s-1 .448-1 1V51zM18 44c-.157 0-.314-.037-.458-.111C17.209 43.716 17 43.374 17 43V26c0-.323.156-.626.419-.814.305-.217 7.542-5.291 14.975-2.105C32.762 23.238 33 23.6 33 24v17c0 .336-.169.65-.45.835-.28.186-.634.217-.944.084-6.383-2.736-12.96 1.849-13.026 1.896C18.408 43.937 18.204 44 18 44zM19 26.543v14.689c2.358-1.258 7.039-3.136 12-1.657V24.681C25.74 22.799 20.494 25.626 19 26.543z"/><path fill="#8d6c9f" d="M46 44c-.204 0-.408-.062-.58-.185-.066-.046-6.643-4.63-13.026-1.896-.31.133-.665.101-.944-.084C31.169 41.65 31 41.336 31 41V24c0-.4.238-.762.606-.919 7.434-3.187 14.671 1.888 14.975 2.105C46.844 25.374 47 25.677 47 26v17c0 .374-.209.716-.542.888C46.314 43.963 46.157 44 46 44zM36.783 39.033c3.458 0 6.473 1.27 8.217 2.199V26.543c-1.494-.918-6.742-3.743-12-1.862v14.895C34.292 39.191 35.565 39.033 36.783 39.033zM28 29h-6c-.552 0-1-.448-1-1s.448-1 1-1h6c.552 0 1 .448 1 1S28.552 29 28 29zM28 33h-6c-.552 0-1-.448-1-1s.448-1 1-1h6c.552 0 1 .448 1 1S28.552 33 28 33zM28 37h-4c-.552 0-1-.448-1-1s.448-1 1-1h4c.552 0 1 .448 1 1S28.552 37 28 37z"/><path fill="#8d6c9f" d="M42 29h-6c-.552 0-1-.448-1-1s.448-1 1-1h6c.552 0 1 .448 1 1S42.552 29 42 29zM42 33h-6c-.552 0-1-.448-1-1s.448-1 1-1h6c.552 0 1 .448 1 1S42.552 33 42 33zM40 37h-4c-.552 0-1-.448-1-1s.448-1 1-1h4c.552 0 1 .448 1 1S40.552 37 40 37z"/></svg>