<svg xmlns="http://www.w3.org/2000/svg" xmlns:xlink="http://www.w3.org/1999/xlink" viewBox="0 0 64 64"><path fill="#c5e4fa" d="M11 11H61V45H11z"/><path fill="#e3f2ff" d="M61 25.57L41.57 45 59.79 45 61 43.79 61 25.57zM61 13.43L29.43 45 36.71 45 61 20.71 61 13.43zM52.5 11L18.5 45 24.57 45 58.57 11 52.5 11z"/><rect width="54" height="6" x="9" y="5" fill="#acb7d0" rx="2" ry="2"/><path fill="#faefde" d="M11 9A5 5 0 1 0 11 19A5 5 0 1 0 11 9Z"/><path fill="#72caaf" d="M18,41V29.63l2.46,1.66A10,10,0,0,0,26.06,33H30.5A2.5,2.5,0,0,0,33,30.5h0A2.5,2.5,0,0,0,30.5,28h-3a5,5,0,0,1-2.93-1l-4.16-3a10,10,0,0,0-3.12-1.52l-1.37-.39a14.31,14.31,0,0,0-7.86,0h0A10,10,0,0,0,3,25.49H3a9.16,9.16,0,0,0-2,5.72V40.5A2.5,2.5,0,0,0,3.5,43h0A2.5,2.5,0,0,0,6,40.5V41L5.14,59.86a3,3,0,0,0,3,3.14h0a3,3,0,0,0,3-2.85L12,43h0l.86,17.15a3,3,0,0,0,3,2.85h0a3,3,0,0,0,3-3.14Z"/><path fill="#8d6c9f" d="M22 38.06a1 1 0 0 0-1 1v2a1 1 0 0 0 2 0v-2A1 1 0 0 0 22 38.06zM27 38.06a1 1 0 0 0-1 1v2a1 1 0 0 0 2 0v-2A1 1 0 0 0 27 38.06zM32 38.06a1 1 0 0 0-1 1v2a1 1 0 0 0 2 0v-2A1 1 0 0 0 32 38.06zM37 38.06a1 1 0 0 0-1 1v2a1 1 0 0 0 2 0v-2A1 1 0 0 0 37 38.06zM42 38.06a1 1 0 0 0-1 1v2a1 1 0 0 0 2 0v-2A1 1 0 0 0 42 38.06zM47 38.06a1 1 0 0 0-1 1v2a1 1 0 0 0 2 0v-2A1 1 0 0 0 47 38.06zM52 38.06a1 1 0 0 0-1 1v2a1 1 0 0 0 2 0v-2A1 1 0 0 0 52 38.06zM57 42.06a1 1 0 0 0 1-1v-2a1 1 0 0 0-2 0v2A1 1 0 0 0 57 42.06zM52 10.06H48a1 1 0 0 0 0 2h4a1 1 0 0 0 0-2zM14 27.5H12a1 1 0 0 0 0 2h2a1 1 0 0 0 0-2z"/><path fill="#8d6c9f" d="M61,4.06H39.64l-1-2A3,3,0,0,0,36,.47h0a3,3,0,0,0-2.66,1.69l-.92,1.9H11a3,3,0,0,0-3,3V8.81a6,6,0,0,0,2,11.1v.8a15.31,15.31,0,0,0-2.21.46,10.94,10.94,0,0,0-5.57,3.71A10.2,10.2,0,0,0,0,31.21V40.5a3.5,3.5,0,0,0,4.88,3.22l-.73,16.1A4,4,0,0,0,12,61.08a4,4,0,0,0,7.86-1.26l-.63-13.76h14L27.14,56.5a1,1,0,0,0,1.73,1l6.68-11.45H36V51a1,1,0,0,0,2,0V46.06h.46L45.14,57.5a1,1,0,0,0,1.73-1L40.77,46.06H59a3,3,0,0,0,3-3V11.89a3,3,0,0,0,2-2.83v-2A3,3,0,0,0,61,4.06ZM35.07,3A1,1,0,0,1,36,2.47h0a1,1,0,0,1,.89.54l.51,1H34.6ZM6.8,14A4.2,4.2,0,1,1,11,18.2,4.2,4.2,0,0,1,6.8,14ZM17,41l.86,18.86A2,2,0,0,1,15.68,62a2.07,2.07,0,0,1-1.83-2L13,43a1,1,0,0,0-2,0l-.85,17a2.1,2.1,0,0,1-1.82,2,2,2,0,0,1-2.19-2.08L7,41V29.67a1,1,0,0,0-2,0V40.5a1.5,1.5,0,0,1-3,0v-9A8.56,8.56,0,0,1,3.86,26a9,9,0,0,1,4.48-2.94,13.3,13.3,0,0,1,7.31,0h0A17.12,17.12,0,0,1,21,25.68l3,2.17A6,6,0,0,0,27.52,29h3a1.5,1.5,0,0,1,0,3H26.06a9,9,0,0,1-5-1.54L18.56,28.8a1,1,0,0,0-1.56.83V41S17,41,17,41Zm45-32a1,1,0,0,1-1,1H56a1,1,0,0,0,0,2h4v31a1,1,0,0,1-1,1H19.14L19,41V31.51l.91.61A11,11,0,0,0,26.06,34H30.4a3.56,3.56,0,0,0,3.53-2.76A3.51,3.51,0,0,0,30.5,27h-3a4,4,0,0,1-2.35-.76l-3.41-2.47A16.21,16.21,0,0,0,16.7,21.3l-.49-.14A15.29,15.29,0,0,0,12,20.57v-.66a6,6,0,0,0,4.67-7.85H44a1,1,0,0,0,0-2H15.51a5.91,5.91,0,0,0-5.51-2v-1a1,1,0,0,1,1-1H61a1,1,0,0,1,1,1Z"/><path fill="#fff" d="M35.5 16L36.74 18.26 39 19.5 36.74 20.74 35.5 23 34.26 20.74 32 19.5 34.26 18.26 35.5 16zM52.42 21L53.27 22.56 54.84 23.42 53.27 24.27 52.42 25.84 51.56 24.27 50 23.42 51.56 22.56 52.42 21zM42.42 31L42.92 31.92 43.84 32.42 42.92 32.92 42.42 33.84 41.92 32.92 41 32.42 41.92 31.92 42.42 31z"/></svg>