<svg xmlns="http://www.w3.org/2000/svg" xmlns:xlink="http://www.w3.org/1999/xlink" viewBox="0 0 128 128"><path fill="#444b54" d="M124,81h-4V14c0-7.2-5.8-13-13-13H20C12.8,1,7,6.8,7,14v67H4c-1.7,0-3,1.3-3,3s1.3,3,3,3h75c1.7,0,3-1.3,3-3c0-2.2,1.8-4,4-4h4c2.2,0,4,1.8,4,4c0,1.7,1.3,3,3,3h27c1.7,0,3-1.3,3-3S125.7,81,124,81z"/><path fill="#fff" d="M41 57c-1.7 0-3-1.3-3-3V41.2l-.9.9c-1.2 1.2-3.1 1.2-4.2 0-1.2-1.2-1.2-3.1 0-4.2l6-6c.9-.9 2.1-1.1 3.3-.7 1.1.5 1.9 1.6 1.9 2.8v20C44 55.7 42.7 57 41 57zM69 47H59c-1.7 0-3-1.3-3-3s1.3-3 3-3h10c1.7 0 3 1.3 3 3S70.7 47 69 47z"/><path fill="#fff" d="M64 52c-1.7 0-3-1.3-3-3V39c0-1.7 1.3-3 3-3 1.7 0 3 1.3 3 3v10C67 50.7 65.7 52 64 52zM90 57c-1.7 0-3-1.3-3-3V41.2l-.9.9c-1.2 1.2-3.1 1.2-4.2 0-1.2-1.2-1.2-3.1 0-4.2l6-6c.9-.9 2.1-1.1 3.3-.7 1.1.5 1.9 1.6 1.9 2.8v20C93 55.7 91.7 57 90 57z"/><g><path fill="#444b54" d="M124,127H4c-1.7,0-3-1.3-3-3s1.3-3,3-3h120c1.7,0,3,1.3,3,3S125.7,127,124,127z"/></g></svg>