<svg xmlns="http://www.w3.org/2000/svg" xmlns:xlink="http://www.w3.org/1999/xlink" viewBox="0 0 64 64"><linearGradient id="do7bX7x3YkLy2KvyfrRVta" x1="44" x2="44" y1="27.583" y2="34.726" gradientUnits="userSpaceOnUse" spreadMethod="reflect"><stop offset="0" stop-color="#6dc7ff"/><stop offset="1" stop-color="#e6abff"/></linearGradient><path fill="url(#do7bX7x3YkLy2KvyfrRVta)" d="M50,33c0,0.552-0.448,1-1,1H39c-0.552,0-1-0.448-1-1v-4c0-0.552,0.448-1,1-1h10 c0.552,0,1,0.448,1,1V33z"/><linearGradient id="do7bX7x3YkLy2KvyfrRVtb" x1="32" x2="32" y1="4.833" y2="59.334" gradientUnits="userSpaceOnUse" spreadMethod="reflect"><stop offset="0" stop-color="#1a6dff"/><stop offset="1" stop-color="#c822ff"/></linearGradient><path fill="url(#do7bX7x3YkLy2KvyfrRVtb)" d="M56,41V15c0-1.654-1.346-3-3-3H26.786C24.961,8.444,21.264,6,17,6C10.935,6,6,10.935,6,17 c0,5.024,3.39,9.263,8,10.573V41h-2v3c0,1.654,1.346,3,3,3h12.51L22.36,58h2.21L26,54.949V55h18v-0.055L45.43,58h2.21l-5.159-11H55 c1.654,0,3-1.346,3-3v-3H56z M8,17c0-4.963,4.037-9,9-9s9,4.037,9,9s-4.037,9-8.999,9H17C12.037,26,8,21.963,8,17z M16,27.949 C16.33,27.979,16.663,28,17.001,28C23.065,28,28,23.065,28,17c0-1.041-0.155-2.045-0.427-3H53c0.552,0,1,0.448,1,1v26H40 c0-1.103-0.897-2-2-2h-6c-1.103,0-2,0.897-2,2H16V27.949z M26.913,53l0.937-2h14.303l0.936,2H26.913z M40.6,47.68L41.218,49h-12.43 l0.642-1.37c0.15-0.38,0.51-0.63,0.93-0.63h9.28C40.06,47,40.42,47.25,40.6,47.68z M56,44c0,0.552-0.448,1-1,1H39.64h-9.28H15 c-0.552,0-1-0.448-1-1v-1h42V44z"/><linearGradient id="do7bX7x3YkLy2KvyfrRVtc" x1="19" x2="19" y1="4.833" y2="59.334" gradientUnits="userSpaceOnUse" spreadMethod="reflect"><stop offset="0" stop-color="#1a6dff"/><stop offset="1" stop-color="#c822ff"/></linearGradient><path fill="url(#do7bX7x3YkLy2KvyfrRVtc)" d="M19.816,18H24v-2h-4.184c-0.302-0.847-0.969-1.514-1.816-1.816V10h-2v4.184 c-1.162,0.414-2,1.514-2,2.816c0,1.654,1.346,3,3,3C18.302,20,19.402,19.161,19.816,18z M16,17c0-0.552,0.448-1,1-1s1,0.448,1,1 s-0.448,1-1,1S16,17.552,16,17z"/><linearGradient id="do7bX7x3YkLy2KvyfrRVtd" x1="44" x2="44" y1="4.833" y2="59.334" gradientUnits="userSpaceOnUse" spreadMethod="reflect"><stop offset="0" stop-color="#1a6dff"/><stop offset="1" stop-color="#c822ff"/></linearGradient><path fill="url(#do7bX7x3YkLy2KvyfrRVtd)" d="M38 20H50V22H38z"/><linearGradient id="do7bX7x3YkLy2KvyfrRVte" x1="44" x2="44" y1="4.833" y2="59.334" gradientUnits="userSpaceOnUse" spreadMethod="reflect"><stop offset="0" stop-color="#1a6dff"/><stop offset="1" stop-color="#c822ff"/></linearGradient><path fill="url(#do7bX7x3YkLy2KvyfrRVte)" d="M38 24H50V26H38z"/><linearGradient id="do7bX7x3YkLy2KvyfrRVtf" x1="28" x2="28" y1="4.833" y2="59.334" gradientUnits="userSpaceOnUse" spreadMethod="reflect"><stop offset="0" stop-color="#1a6dff"/><stop offset="1" stop-color="#c822ff"/></linearGradient><path fill="url(#do7bX7x3YkLy2KvyfrRVtf)" d="M20 32H36V34H20z"/><linearGradient id="do7bX7x3YkLy2KvyfrRVtg" x1="28" x2="28" y1="4.833" y2="59.334" gradientUnits="userSpaceOnUse" spreadMethod="reflect"><stop offset="0" stop-color="#1a6dff"/><stop offset="1" stop-color="#c822ff"/></linearGradient><path fill="url(#do7bX7x3YkLy2KvyfrRVtg)" d="M20 28H36V30H20z"/><linearGradient id="do7bX7x3YkLy2KvyfrRVth" x1="32" x2="32" y1="4.833" y2="59.334" gradientUnits="userSpaceOnUse" spreadMethod="reflect"><stop offset="0" stop-color="#1a6dff"/><stop offset="1" stop-color="#c822ff"/></linearGradient><path fill="url(#do7bX7x3YkLy2KvyfrRVth)" d="M28 24H36V26H28z"/></svg>