<svg xmlns="http://www.w3.org/2000/svg" xmlns:xlink="http://www.w3.org/1999/xlink" x="0" y="0" viewBox="0 0 128 128"><path fill="#fff" d="M50,4l5,19L40.9,33.4c-1.6,1.1-0.7,3.6,1.2,3.6h13.7v14.2C59.4,60.5,68.5,67,79,67c13.8,0,25-11.2,25-25V23 l5-19H50z"/><path fill="#75fa61" d="M109,4H50l5,19L40.9,33.4c-1.6,1.1-0.7,3.6,1.2,3.6h18.7h22.8c5.3,0,10.4-2.1,14.1-5.9L104,23"/><path fill="#75fa61" d="M83.6,40H42.1c-2.2,0-4.1-1.4-4.8-3.4c-0.7-2.1,0-4.3,1.8-5.6l12.5-9.2l-4.5-17c-0.2-0.9,0-1.9,0.5-2.6 S49.1,1,50,1h59c1.7,0,3,1.3,3,3s-1.3,3-3,3H53.9l4,15.2c0.3,1.2-0.1,2.4-1.1,3.2L45.1,34h38.4c4.5,0,8.7-1.7,11.9-4.9l6.2-8 c1-1.3,2.9-1.6,4.2-0.5c1.3,1,1.6,2.9,0.5,4.2l-6.3,8.1c-0.1,0.1-0.2,0.2-0.3,0.3C95.5,37.6,89.7,40,83.6,40z"/><path fill="#e4e4e7" d="M93.8,82.2C89.1,81.4,84.2,81,79,81h0c-26.5-2-51.2,14.2-65,13.8l0,0C26.5,113.1,47.3,124,69.4,124H124v-9.3 c0-13.5-6-22.3-15.4-27.5L99,87.6L93.8,82.2z"/><path fill="#fff" d="M73.8,121.9l34.7-34.7c-4.3-2.4-9.3-4-14.8-5l-29.8,29.8c-4.4,4.4-1.3,11.8,4.8,11.9c0.1,0,0.2,0,0.3,0 C70.8,124,72.6,123.2,73.8,121.9z"/><path fill="#444b54" d="M124,127c-1.7,0-3-1.3-3-3v-9.2c0-10.6-4-18.6-11.9-23.8L76,124.1c-1.9,1.9-4.4,2.9-7.1,2.9 c-4.1,0-7.7-2.4-9.2-6.2c-1.6-3.8-0.7-8,2.2-10.9l25.6-25.6C84.7,84.1,81.9,84,79,84c-10.2,0-18.7,0.9-26.8,2.9 c-6.6,1.6-13.2,4.1-19.1,6.3c-9.9,3.7-16.5,6.2-20.5,4.2c-2.6-1.3-5.8-5.7-6.8-12.3c-1.3-9,1.3-23.6,21.1-42.3 c1.2-1.1,3.1-1.1,4.2,0.1c1.1,1.2,1.1,3.1-0.1,4.2c-7.9,7.5-20.9,22.1-19.3,36.4c0.6,5.6,3.2,8.2,3.7,8.5 c1.8,0.8,9.8-2.2,15.6-4.4c6-2.3,12.9-4.8,19.8-6.5C59.4,79,68.3,78,79,78c5.5,0,10.6,0.4,15.3,1.3c0.8,0.1,1.5,0.6,1.9,1.2 c0.5,0.7,0.6,1.5,0.5,2.3c-0.1,0.6-0.4,1.1-0.8,1.6l-29.8,29.8c-1.8,1.8-1.1,3.8-0.9,4.4c0.2,0.6,1.2,2.5,3.7,2.5 c1.1,0,2.1-0.4,2.8-1.2l34.7-34.7c0.9-0.9,2.4-1.1,3.6-0.5c11.1,6.1,17,16.6,17,30.2v9.2C127,125.7,125.7,127,124,127z"/><path fill="#444b54" d="M109.8,1.1c-1.6-0.4-3.2,0.5-3.7,2.1L101.7,20H73c-1.7,0-3,1.3-3,3s1.3,3,3,3h28v16c0,12.1-9.9,22-22,22 c-9.1,0-17.1-5.4-20.5-13.9c-0.6-1.5-2.4-2.3-3.9-1.7c-1.5,0.6-2.3,2.4-1.7,3.9C57.2,63.1,67.5,70,79,70c15.4,0,28-12.6,28-28V23.4 l4.9-18.6C112.3,3.2,111.4,1.5,109.8,1.1z"/></svg>