<svg xmlns="http://www.w3.org/2000/svg" xmlns:xlink="http://www.w3.org/1999/xlink" viewBox="0 0 128 128"><path fill="#444b54" d="M125.2,49.2l-59-25c-0.7-0.3-1.6-0.3-2.3,0l-61,25C1.7,49.7,1,50.8,1,52s0.7,2.3,1.9,2.8L23,63c1.5,0.6,3.3-0.1,3.9-1.6c0,0,0,0,0,0L65,77l36.1-15.3c0,0,0,0,0,0c0.5,1.1,1.6,1.8,2.8,1.8c0.4,0,0.8-0.1,1.2-0.2l20.2-8.5c1.1-0.5,1.8-1.6,1.8-2.8S126.3,49.7,125.2,49.2z"/><path fill="#fff" d="M103.4,60.9c-3.2-7.1-19.6-12.4-39.4-12.4c-19.5,0-35.8,5.3-39.3,12.2l-0.7,0v2.8V86v8.6c4.3-3.5,9-6.4,13.9-8.6h51.3c5.2,2.2,10.2,5.2,14.8,8.8V89v-3V63.5v-2.6L103.4,60.9z"/><path fill="#444b54" d="M104 97.8c-1.7 0-3-1.3-3-3V60.9c0-1.7 1.3-3 3-3s3 1.3 3 3v33.8C107 96.4 105.7 97.8 104 97.8zM24 97.6c-1.7 0-3-1.3-3-3V60.7c0-1.7 1.3-3 3-3s3 1.3 3 3v33.9C27 96.2 25.7 97.6 24 97.6zM124 85.9c-1.7 0-3-1.3-3-3V64c0-1.7 1.3-3 3-3s3 1.3 3 3v18.9C127 84.5 125.7 85.9 124 85.9z"/><path fill="#444b54" d="M104,67.5c1.7,0,3-1.3,3-3c0-11.7-22.2-18-43-18c-20.7,0-42.7,6.2-43,17.8c0,1.5,1,3,2.5,3.2c1.9,0.3,3.5-1.1,3.5-3c0-5,14.1-12,37-12c6.6,0,12.5,0.6,17.6,1.5C83,54.3,84,55.6,84,57v17.9c0,1.9-1.7,3.3-3.5,3C75.2,77,69.6,76.5,64,76.5c-20.8,0-43,6.3-43,18s22.2,18,43,18s43-6.3,43-18c0-2.6-1.1-4.9-3-7V67.5z"/><path fill="#fff" d="M64,106.5c-1.7,0-3-1.3-3-3s1.3-3,3-3c19.4,0,29.7-5.3,31.2-7c0.5-1.4,2-2.2,3.5-1.9c1.6,0.4,2.6,2,2.3,3.6C99.7,100.5,84.3,106.5,64,106.5z M95.1,93.9C95.1,93.9,95.1,93.9,95.1,93.9C95.1,93.9,95.1,93.9,95.1,93.9z M95.3,93.4L95.3,93.4L95.3,93.4z"/></svg>