<svg xmlns="http://www.w3.org/2000/svg" xmlns:xlink="http://www.w3.org/1999/xlink" viewBox="0 0 64 64"><linearGradient id="vwyKGctS3yHLuwpW6E3JRa" x1="39.463" x2="39.463" y1="38.496" y2="43.186" gradientUnits="userSpaceOnUse" spreadMethod="reflect"><stop offset="0" stop-color="#6dc7ff"/><stop offset="1" stop-color="#e6abff"/></linearGradient><path fill="url(#vwyKGctS3yHLuwpW6E3JRa)" d="M41,40.49c0,1.39-1.12,2.51-2.51,2.51c-0.15,0-0.3-0.01-0.44-0.04 c-0.69-0.12,1.7-4.72,2.15-4.3C40.69,39.11,41,39.77,41,40.49z"/><linearGradient id="vwyKGctS3yHLuwpW6E3JRb" x1="48.505" x2="48.505" y1="112.157" y2="106.775" gradientTransform="matrix(1 0 0 -1 0 150)" gradientUnits="userSpaceOnUse" spreadMethod="reflect"><stop offset="0" stop-color="#6dc7ff"/><stop offset="1" stop-color="#e6abff"/></linearGradient><path fill="url(#vwyKGctS3yHLuwpW6E3JRb)" d="M48.505 38A2.505 2.505 0 1 0 48.505 43.010000000000005A2.505 2.505 0 1 0 48.505 38Z"/><linearGradient id="vwyKGctS3yHLuwpW6E3JRc" x1="43.5" x2="43.5" y1="104.168" y2="99.828" gradientTransform="matrix(1 0 0 -1 0 150)" gradientUnits="userSpaceOnUse" spreadMethod="reflect"><stop offset="0" stop-color="#6dc7ff"/><stop offset="1" stop-color="#e6abff"/></linearGradient><path fill="url(#vwyKGctS3yHLuwpW6E3JRc)" d="M47,45.958C47,48.19,45.433,50,43.5,50S40,48.19,40,45.958H47z"/><linearGradient id="vwyKGctS3yHLuwpW6E3JRd" x1="24.5" x2="24.5" y1="39" y2="44" gradientUnits="userSpaceOnUse" spreadMethod="reflect"><stop offset="0" stop-color="#6dc7ff"/><stop offset="1" stop-color="#e6abff"/></linearGradient><path fill="url(#vwyKGctS3yHLuwpW6E3JRd)" d="M19.976,39c0,2.757,2.029,5,4.524,5s4.524-2.243,4.524-5H19.976z"/><linearGradient id="vwyKGctS3yHLuwpW6E3JRe" x1="32.005" x2="32.005" y1="5" y2="57" gradientUnits="userSpaceOnUse" spreadMethod="reflect"><stop offset="0" stop-color="#1a6dff"/><stop offset="1" stop-color="#c822ff"/></linearGradient><path fill="url(#vwyKGctS3yHLuwpW6E3JRe)" d="M58,36.32v-1.94C58,26.45,51.5,20,43.5,20c-1.03,0-2.04,0.11-3,0.31 c-1.06-4.12-3.74-7.74-7.51-9.98C32.95,8.49,31.41,7,29.5,7h-1.84c-0.55-1.18-1.76-2-3.16-2c-1.4,0-2.61,0.82-3.16,2H19.5 c-1.91,0-3.45,1.49-3.49,3.33C11.06,13.27,8,18.56,8,24.29v1.72C7.93,26.01,7.86,26,7.79,26C4.6,26,2,28.69,2,32s2.6,6,5.79,6 c0.27,0,0.53-0.02,0.8-0.06C10.48,44.88,16.89,50,24.5,50c2.1,0,4.11-0.39,5.96-1.1c2.35,4.79,7.31,8.1,13.04,8.1 c6.51,0,12.03-4.28,13.86-10.15c2.66-0.56,4.65-2.74,4.65-5.35C62.01,39.11,60.33,37.08,58,36.32z M7.79,36C5.7,36,4,34.21,4,32 s1.7-4,3.79-4c0.07,0,0.14,0.01,0.21,0.01v5.7c0,0.77,0.07,1.52,0.18,2.26C8.05,35.99,7.92,36,7.79,36z M28,9h1.5 c0.83,0,1.5,0.63,1.5,1.4v1.07c0,0.75-0.53,1.4-1.23,1.51c-0.47,0.07-0.94-0.05-1.28-0.35C28.17,12.36,28,12,28,11.6V9z M23,8.45 C23,7.65,23.67,7,24.5,7C25.33,7,26,7.65,26,8.45v6.13c0,0.8-0.67,1.46-1.5,1.46c-0.83,0-1.5-0.66-1.5-1.46V8.45z M18,10.4 C18,9.63,18.67,9,19.5,9H21v2.6c0,0.4-0.17,0.76-0.49,1.03c-0.34,0.3-0.81,0.42-1.28,0.35c-0.7-0.11-1.23-0.76-1.23-1.51V10.4z M10,33.71v-9.42c0-4.69,2.34-9.04,6.19-11.7c0.41,1.22,1.44,2.16,2.74,2.37C19.12,14.98,19.31,15,19.5,15 c0.52,0,1.04-0.13,1.51-0.35c0.04,1.87,1.58,3.39,3.49,3.39c1.91,0,3.45-1.52,3.49-3.39C28.46,14.87,28.98,15,29.5,15 c0.19,0,0.38-0.02,0.57-0.04c1.3-0.21,2.33-1.15,2.74-2.37c3.85,2.66,6.19,7.03,6.19,11.7v9.42c0,1.5-0.23,2.94-0.67,4.29 c-0.44,1.39-1.09,2.69-1.93,3.86C33.78,45.57,29.43,48,24.5,48C16.5,48,10,41.59,10,33.71z M56,42.62C56,49.45,50.39,55,43.5,55 c-4.92,0-9.19-2.83-11.22-6.93c2.31-1.24,4.28-2.99,5.77-5.11c0.92-1.31,1.64-2.76,2.15-4.3l0.21-0.72c0.27,0.04,0.53,0.06,0.8,0.06 C44.4,38,47,35.31,47,32s-2.6-6-5.79-6c-0.07,0-0.14,0.01-0.21,0.01v-1.72c0-0.68-0.04-1.35-0.13-2.01C41.72,22.09,42.59,22,43.5,22 C50.39,22,56,27.55,56,34.38V42.62z M40.82,35.97c0.11-0.74,0.18-1.49,0.18-2.26v-5.7c0.07,0,0.14-0.01,0.21-0.01 C43.3,28,45,29.79,45,32s-1.7,4-3.79,4C41.08,36,40.95,35.99,40.82,35.97z M57.85,44.59c0.09-0.65,0.15-1.3,0.15-1.97v-4.14 c1.2,0.61,2.01,1.73,2.01,3.02C60.01,42.85,59.13,44,57.85,44.59z"/><linearGradient id="vwyKGctS3yHLuwpW6E3JRf" x1="24.5" x2="24.5" y1="5.167" y2="49.167" gradientUnits="userSpaceOnUse" spreadMethod="reflect"><stop offset="0" stop-color="#1a6dff"/><stop offset="1" stop-color="#c822ff"/></linearGradient><path fill="url(#vwyKGctS3yHLuwpW6E3JRf)" d="M30.5,27.071c-1.935,0-3.574,1.225-4.209,2.929h-3.536c-0.638-1.704-2.285-2.929-4.231-2.929 c-2.495,0-4.524,2.003-4.524,4.464S16.029,36,18.524,36c2.333,0,4.237-1.759,4.476-4h3.047c0.238,2.241,2.132,4,4.453,4 c2.481,0,4.5-2.003,4.5-4.464S32.981,27.071,30.5,27.071z M18.524,34C17.132,34,16,32.895,16,31.536s1.132-2.464,2.524-2.464 s2.524,1.105,2.524,2.464S19.916,34,18.524,34z M30.5,34c-1.378,0-2.5-1.105-2.5-2.464s1.122-2.464,2.5-2.464s2.5,1.105,2.5,2.464 S31.878,34,30.5,34z"/></svg>