<svg xmlns="http://www.w3.org/2000/svg" xmlns:xlink="http://www.w3.org/1999/xlink" viewBox="0 0 64 64"><linearGradient id="_5p8L4VVc7GX2b_FbTnOwa" x1="32" x2="32" y1="5.75" y2="58.268" gradientUnits="userSpaceOnUse" spreadMethod="reflect"><stop offset="0" stop-color="#1a6dff"/><stop offset="1" stop-color="#c822ff"/></linearGradient><path fill="url(#_5p8L4VVc7GX2b_FbTnOwa)" d="M58,30v-2c0-1.103-0.897-2-2-2v-2c0-1.103-0.897-2-2-2h-4c-1.103,0-2,0.897-2,2v2h-4v-2 c0-1.103-0.897-2-2-2h-0.059c-0.5-4.494-4.316-8-8.941-8v-2h8V6H31v8c-4.625,0-8.441,3.506-8.941,8H22c-1.103,0-2,0.897-2,2v2h-4v-2 c0-1.103-0.897-2-2-2h-4c-1.103,0-2,0.897-2,2v2c-1.103,0-2,0.897-2,2v2c0,1.103,0.897,2,2,2v24H6v2h52v-2h-2V32 C57.103,32,58,31.103,58,30z M33,8h6v2h-6V8z M50,24h4v2h-4V24z M31,16h2c3.519,0,6.432,2.614,6.92,6H24.08 C24.568,18.614,27.481,16,31,16z M22,24h20v2H22V24z M10,24h4v2h-4V24z M8,28h48l0.002,2H8V28z M10,54h8v2h-8V54z M36,48h-8V38h8V48 z M40,50v2H24v-2H40z M43,54h1v2H20v-2H43z M46,56v-2h8v2H46z M54,52H44h-1h-1v-2c0-1.103-0.897-2-2-2h-2V38c0-1.103-0.897-2-2-2h-8 c-1.103,0-2,0.897-2,2v10h-2c-1.103,0-2,0.897-2,2v2h-2H10V32h44V52z"/><linearGradient id="_5p8L4VVc7GX2b_FbTnOwb" x1="47" x2="47" y1="5.75" y2="58.268" gradientUnits="userSpaceOnUse" spreadMethod="reflect"><stop offset="0" stop-color="#1a6dff"/><stop offset="1" stop-color="#c822ff"/></linearGradient><path fill="url(#_5p8L4VVc7GX2b_FbTnOwb)" d="M44,46h6c1.103,0,2-0.897,2-2v-6c0-1.103-0.897-2-2-2h-6c-1.103,0-2,0.897-2,2v6 C42,45.103,42.897,46,44,46z M44,38h6l0.002,6H44V38z"/><linearGradient id="_5p8L4VVc7GX2b_FbTnOwc" x1="17" x2="17" y1="5.75" y2="58.268" gradientUnits="userSpaceOnUse" spreadMethod="reflect"><stop offset="0" stop-color="#1a6dff"/><stop offset="1" stop-color="#c822ff"/></linearGradient><path fill="url(#_5p8L4VVc7GX2b_FbTnOwc)" d="M14,46h6c1.103,0,2-0.897,2-2v-6c0-1.103-0.897-2-2-2h-6c-1.103,0-2,0.897-2,2v6 C12,45.103,12.897,46,14,46z M14,38h6l0.002,6H14V38z"/><linearGradient id="_5p8L4VVc7GX2b_FbTnOwd" x1="33" x2="33" y1="5.75" y2="58.268" gradientUnits="userSpaceOnUse" spreadMethod="reflect"><stop offset="0" stop-color="#1a6dff"/><stop offset="1" stop-color="#c822ff"/></linearGradient><path fill="url(#_5p8L4VVc7GX2b_FbTnOwd)" d="M32 41H34V45H32z"/><linearGradient id="_5p8L4VVc7GX2b_FbTnOwe" x1="36" x2="36" y1="8" y2="10.264" gradientUnits="userSpaceOnUse" spreadMethod="reflect"><stop offset="0" stop-color="#6dc7ff"/><stop offset="1" stop-color="#e6abff"/></linearGradient><path fill="url(#_5p8L4VVc7GX2b_FbTnOwe)" d="M33 8H39V10H33z"/><linearGradient id="_5p8L4VVc7GX2b_FbTnOwf" x1="14" x2="14" y1="53.938" y2="56.316" gradientUnits="userSpaceOnUse" spreadMethod="reflect"><stop offset="0" stop-color="#6dc7ff"/><stop offset="1" stop-color="#e6abff"/></linearGradient><path fill="url(#_5p8L4VVc7GX2b_FbTnOwf)" d="M10 54H18V56H10z"/><linearGradient id="_5p8L4VVc7GX2b_FbTnOwg" x1="50" x2="50" y1="53.938" y2="56.316" gradientUnits="userSpaceOnUse" spreadMethod="reflect"><stop offset="0" stop-color="#6dc7ff"/><stop offset="1" stop-color="#e6abff"/></linearGradient><path fill="url(#_5p8L4VVc7GX2b_FbTnOwg)" d="M46 54H54V56H46z"/></svg>