<svg xmlns="http://www.w3.org/2000/svg" xmlns:xlink="http://www.w3.org/1999/xlink" x="0" y="0" viewBox="0 0 128 128"><polygon fill="#e8e8f9" points="124,124 39,124 14,72 14,4 124,4"/><polygon fill="#c7c3f4" points="124,124 39,124 39,109 55,109 55,54 112.8,4 124,4"/><path fill="#fff" d="M13.1,8.4l-7.2,36c-1,5,2.8,9.6,7.8,9.6h80.4c5.7,0,10.6-4,11.8-9.6l7.2-35.9l1.2-4.4H18.5L13.1,8.4z"/><rect width="25" height="52" x="14" y="72" fill="#fff"/><rect width="55" height="37" x="55" y="72" fill="#fff"/><path fill="#444b54" d="M110,112H55c-1.7,0-3-1.3-3-3V72c0-1.7,1.3-3,3-3h55c1.7,0,3,1.3,3,3v37C113,110.7,111.7,112,110,112z M58,106h49V75H58V106z"/><path fill="#444b54" d="M124,57c-1.7,0-3-1.3-3-3V9.5c0-1.4-1.1-2.5-2.5-2.5c-1.2,0-2.2,0.8-2.4,2l-7.2,35.9 c-1.4,7-7.6,12.1-14.7,12.1H13.8c-3.3,0-6.4-1.5-8.5-4S2.3,47.1,3,43.8l7.2-36C11,3.9,14.5,1,18.5,1h100c4.7,0,8.5,3.8,8.5,8.5V54 C127,55.7,125.7,57,124,57z M18.5,7c-1.2,0-2.2,0.8-2.4,2L8.9,45c-0.3,1.5,0.1,3,1,4.2c1,1.2,2.4,1.8,3.9,1.8h80.4 c4.3,0,8-3,8.8-7.2l7.2-35.9c0.1-0.3,0.1-0.6,0.2-0.8H18.5z"/><path fill="#444b54" d="M23.9,47.4c-0.2,0-0.4,0-0.6-0.1c-1.6-0.3-2.7-1.9-2.4-3.5l6.1-30.4c0.3-1.6,1.9-2.7,3.5-2.4 c1.6,0.3,2.7,1.9,2.4,3.5L26.9,45C26.6,46.4,25.3,47.4,23.9,47.4z"/><path fill="#444b54" d="M44.9,47.4c-0.2,0-0.4,0-0.6-0.1c-1.6-0.3-2.7-1.9-2.4-3.5l6.1-30.4c0.3-1.6,1.9-2.7,3.5-2.4 c1.6,0.3,2.7,1.9,2.4,3.5L47.9,45C47.6,46.4,46.3,47.4,44.9,47.4z"/><path fill="#444b54" d="M65.9,47.4c-0.2,0-0.4,0-0.6-0.1c-1.6-0.3-2.7-1.9-2.4-3.5l6.1-30.4c0.3-1.6,1.9-2.7,3.5-2.4 c1.6,0.3,2.7,1.9,2.4,3.5L68.9,45C68.6,46.4,67.3,47.4,65.9,47.4z"/><path fill="#444b54" d="M86.9,47.4c-0.2,0-0.4,0-0.6-0.1c-1.6-0.3-2.7-1.9-2.4-3.5l6.1-30.4c0.3-1.6,1.9-2.7,3.5-2.4 c1.6,0.3,2.7,1.9,2.4,3.5L89.9,45C89.6,46.4,88.3,47.4,86.9,47.4z"/><path fill="#444b54" d="M124,127H39c-1.7,0-3-1.3-3-3V75H17v49c0,1.7-1.3,3-3,3H4c-1.7,0-3-1.3-3-3s1.3-3,3-3h7V72c0-1.7,1.3-3,3-3 h25c1.7,0,3,1.3,3,3v49h79V82c0-1.7,1.3-3,3-3s3,1.3,3,3v42C127,125.7,125.7,127,124,127z"/></svg>