<svg xmlns="http://www.w3.org/2000/svg" xmlns:xlink="http://www.w3.org/1999/xlink" viewBox="0 0 128 128"><path fill="#fff" d="M42 34L32 45 52 45 52 124 76 124 76 45 96 45 85 34zM22 75H34V127H22z"/><path fill="#fff" d="M30,45H14C8.5,45,4,49.5,4,55v30h0c3.3,0,6,2.7,6,6l0,36h12V85h12h6V55C40,49.5,35.5,45,30,45z"/><path fill="#71c2ff" d="M34 127c-1.7 0-3-1.3-3-3V85c0-1.7 1.3-3 3-3s3 1.3 3 3v39C37 125.7 35.7 127 34 127zM22 127c-1.7 0-3-1.3-3-3V91c0-1.7 1.3-3 3-3s3 1.3 3 3v33C25 125.7 23.7 127 22 127z"/><path fill="#fff" d="M22 14A10 10 0 1 0 22 34A10 10 0 1 0 22 14Z"/><path fill="#71c2ff" d="M22 37c-7.2 0-13-5.8-13-13s5.8-13 13-13 13 5.8 13 13S29.2 37 22 37zM22 17c-3.9 0-7 3.1-7 7s3.1 7 7 7 7-3.1 7-7S25.9 17 22 17zM10 127c-1.7 0-3-1.3-3-3V91c0-1.7 1.3-3 3-3s3 1.3 3 3v33C13 125.7 11.7 127 10 127zM4 88c-1.7 0-3-1.3-3-3V55c0-7.2 5.8-13 13-13h2c1.7 0 3 1.3 3 3s-1.3 3-3 3h-2c-3.9 0-7 3.1-7 7v30C7 86.7 5.7 88 4 88z"/><g><path fill="#fff" d="M106 75H118V127H106z"/><path fill="#fff" d="M114,45H98c-5.5,0-10,4.5-10,10v30h0c3.3,0,6,2.7,6,6v36h12V85h12h6V55C124,49.5,119.5,45,114,45z"/><path fill="#71c2ff" d="M118 127c-1.7 0-3-1.3-3-3V85c0-1.7 1.3-3 3-3h3V55c0-3.9-3.1-7-7-7h-2c-1.7 0-3-1.3-3-3s1.3-3 3-3h2c7.2 0 13 5.8 13 13v30c0 1.7-1.3 3-3 3h-3v36C121 125.7 119.7 127 118 127zM106 127c-1.7 0-3-1.3-3-3V91c0-1.7 1.3-3 3-3s3 1.3 3 3v33C109 125.7 107.7 127 106 127z"/><path fill="#fff" d="M106 14A10 10 0 1 0 106 34A10 10 0 1 0 106 14Z"/><path fill="#71c2ff" d="M106,37c-7.2,0-13-5.8-13-13s5.8-13,13-13s13,5.8,13,13S113.2,37,106,37z M106,17c-3.9,0-7,3.1-7,7s3.1,7,7,7s7-3.1,7-7S109.9,17,106,17z"/><g><path fill="#71c2ff" d="M94,127c-1.7,0-3-1.3-3-3V85c0-1.7,1.3-3,3-3s3,1.3,3,3v39C97,125.7,95.7,127,94,127z"/></g></g><g><path fill="#444b54" d="M85,37H42c-1.7,0-3-1.3-3-3s1.3-3,3-3h43c1.7,0,3,1.3,3,3S86.7,37,85,37z"/><path fill="#fff" d="M64 4A10 10 0 1 0 64 24A10 10 0 1 0 64 4Z"/><path fill="#444b54" d="M64,27c-7.2,0-13-5.8-13-13S56.8,1,64,1c7.2,0,13,5.8,13,13S71.2,27,64,27z M64,7c-3.9,0-7,3.1-7,7s3.1,7,7,7c3.9,0,7-3.1,7-7S67.9,7,64,7z"/></g><path fill="#444b54" d="M96,48c1.7,0,3-1.3,3-3s-1.3-3-3-3H76c-1.7,0-3,1.3-3,3v76h-6V84.5c0-1.7-1.3-3-3-3c-1.7,0-3,1.3-3,3V121h-6V45c0-1.7-1.3-3-3-3H32c-1.7,0-3,1.3-3,3s1.3,3,3,3h17v73H34c-1.7,0-3,1.3-3,3s1.3,3,3,3h60c1.7,0,3-1.3,3-3s-1.3-3-3-3H79V48H96z"/></svg>