<svg xmlns="http://www.w3.org/2000/svg" xmlns:xlink="http://www.w3.org/1999/xlink" viewBox="0 0 64 64"><linearGradient id="_cG_IbJJmFu8wCBYYUnsOa" x1="31.907" x2="31.907" y1="-891.75" y2="-902.376" gradientTransform="matrix(1 0 0 -1 0 -858)" gradientUnits="userSpaceOnUse"><stop offset="0" stop-color="#6dc7ff"/><stop offset="1" stop-color="#e6abff"/></linearGradient><path fill="url(#_cG_IbJJmFu8wCBYYUnsOa)" d="M31.907,34c-2.761,0-5,2.239-5,5c0,2.761,2.239,5,5,5c2.761,0,5-2.239,5-5C36.907,36.239,34.669,34,31.907,34z"/><linearGradient id="_cG_IbJJmFu8wCBYYUnsOb" x1="32" x2="32" y1="6.489" y2="47.968" gradientUnits="userSpaceOnUse"><stop offset="0" stop-color="#1a6dff"/><stop offset="1" stop-color="#c822ff"/></linearGradient><path fill="url(#_cG_IbJJmFu8wCBYYUnsOb)" d="M53,8H11c-1.654,0-3,1.346-3,3v31c0,1.654,1.346,3,3,3h13.99v8.959 c0,0.739,0.405,1.415,1.057,1.764c0.297,0.158,0.621,0.237,0.943,0.237c0.389,0,0.774-0.113,1.109-0.337l3.891-2.594l3.891,2.594 c0.613,0.41,1.401,0.447,2.053,0.1c0.652-0.349,1.057-1.024,1.057-1.764V45H53c1.654,0,3-1.346,3-3V11C56,9.346,54.654,8,53,8z M24.907,39c0-3.859,3.141-7,7-7s7,3.141,7,7s-3.141,7-7,7S24.907,42.859,24.907,39z M31.907,30c-4.963,0-9,4.037-9,9H14V14h36v25 h-9.093C40.907,34.037,36.87,30,31.907,30z M33.099,51.365c-0.672-0.449-1.544-0.449-2.218,0l-3.891,2.594v-7.43 C28.405,47.456,30.093,48,31.907,48c1.885,0,3.635-0.585,5.083-1.58v7.539L33.099,51.365z M54,42c0,0.552-0.448,1-1,1H39.958 c0.314-0.629,0.558-1.298,0.718-2H51c0.553,0,1-0.447,1-1V13c0-0.553-0.447-1-1-1H13c-0.553,0-1,0.447-1,1v27c0,0.553,0.447,1,1,1 h10c0.047,0,0.087-0.02,0.132-0.027c0.16,0.712,0.407,1.389,0.725,2.027H11c-0.552,0-1-0.448-1-1V11c0-0.552,0.448-1,1-1h42 c0.552,0,1,0.448,1,1V42z"/><linearGradient id="_cG_IbJJmFu8wCBYYUnsOc" x1="32" x2="32" y1="6.489" y2="47.968" gradientUnits="userSpaceOnUse"><stop offset="0" stop-color="#1a6dff"/><stop offset="1" stop-color="#c822ff"/></linearGradient><rect width="16" height="2" x="24" y="17" fill="url(#_cG_IbJJmFu8wCBYYUnsOc)"/><linearGradient id="_cG_IbJJmFu8wCBYYUnsOd" x1="32" x2="32" y1="6.489" y2="47.968" gradientUnits="userSpaceOnUse"><stop offset="0" stop-color="#1a6dff"/><stop offset="1" stop-color="#c822ff"/></linearGradient><rect width="22" height="2" x="21" y="21" fill="url(#_cG_IbJJmFu8wCBYYUnsOd)"/><linearGradient id="_cG_IbJJmFu8wCBYYUnsOe" x1="32" x2="32" y1="6.489" y2="47.968" gradientUnits="userSpaceOnUse"><stop offset="0" stop-color="#1a6dff"/><stop offset="1" stop-color="#c822ff"/></linearGradient><rect width="28" height="2" x="18" y="25" fill="url(#_cG_IbJJmFu8wCBYYUnsOe)"/></svg>