<svg xmlns="http://www.w3.org/2000/svg" xmlns:xlink="http://www.w3.org/1999/xlink" viewBox="0 0 64 64"><linearGradient id="~FIbcdVzjUHNHF~C3jhQ8a" x1="32" x2="32" y1="10.489" y2="53.043" gradientUnits="userSpaceOnUse"><stop offset="0" stop-color="#1a6dff"/><stop offset="1" stop-color="#c822ff"/></linearGradient><path fill="url(#~FIbcdVzjUHNHF~C3jhQ8a)" d="M56,10H8c-2.757,0-5,2.243-5,5v32c0,2.757,2.243,5,5,5h13.184c0.414,1.161,1.514,2,2.816,2h16c1.302,0,2.402-0.839,2.816-2H56c2.757,0,5-2.243,5-5V15C61,12.243,58.757,10,56,10z M17,49c0-0.552,0.449-1,1-1h3v2h-3C17.449,50,17,49.552,17,49z M9,46V16h46l0.001,30H9z M41,51c0,0.552-0.449,1-1,1H24c-0.551,0-1-0.448-1-1v-3h18V51z M43,50v-2h3c0.551,0,1,0.448,1,1s-0.449,1-1,1H43z M59,47c0,1.654-1.346,3-3,3h-7.184C48.928,49.686,49,49.352,49,49s-0.072-0.686-0.184-1H55c1.103,0,2-0.897,2-2V16c0-1.103-0.897-2-2-2H9c-1.103,0-2,0.897-2,2v30c0,1.103,0.897,2,2,2h6.184C15.072,48.314,15,48.648,15,49s0.072,0.686,0.184,1H8c-1.654,0-3-1.346-3-3V15c0-1.654,1.346-3,3-3h48c1.654,0,3,1.346,3,3V47z"/><linearGradient id="~FIbcdVzjUHNHF~C3jhQ8b" x1="23" x2="23" y1="26.934" y2="36.136" gradientUnits="userSpaceOnUse"><stop offset="0" stop-color="#6dc7ff"/><stop offset="1" stop-color="#e6abff"/></linearGradient><path fill="url(#~FIbcdVzjUHNHF~C3jhQ8b)" d="M20,29v7.5c0,0.276,0.224,0.5,0.5,0.5h1c0.276,0,0.5-0.224,0.5-0.5V34h2v2.5c0,0.276,0.224,0.5,0.5,0.5h1c0.276,0,0.5-0.224,0.5-0.5V29c0-1.105-0.895-2-2-2h-2C20.895,27,20,27.895,20,29z M22,31.5v-2c0-0.276,0.224-0.5,0.5-0.5h1c0.276,0,0.5,0.224,0.5,0.5v2c0,0.276-0.224,0.5-0.5,0.5h-1C22.224,32,22,31.776,22,31.5z"/><linearGradient id="~FIbcdVzjUHNHF~C3jhQ8c" x1="31.5" x2="31.5" y1="26.934" y2="36.136" gradientUnits="userSpaceOnUse"><stop offset="0" stop-color="#6dc7ff"/><stop offset="1" stop-color="#e6abff"/></linearGradient><path fill="url(#~FIbcdVzjUHNHF~C3jhQ8c)" d="M33.973,31.263C33.985,31.176,34,31.09,34,31v-2c0-1.105-0.895-2-2-2h-2c-1.105,0-2,0.895-2,2v2v2v2c0,1.104,0.895,2,2,2h3c1.105,0,2-0.896,2-2v-2C35,32.251,34.583,31.606,33.973,31.263z M30,30.5v-1c0-0.276,0.224-0.5,0.5-0.5h1c0.276,0,0.5,0.224,0.5,0.5v1c0,0.276-0.224,0.5-0.5,0.5h-1C30.224,31,30,30.776,30,30.5z M33,34.5c0,0.276-0.224,0.5-0.5,0.5h-2c-0.276,0-0.5-0.224-0.5-0.5v-1c0-0.276,0.224-0.5,0.5-0.5H32h0.5c0.276,0,0.5,0.224,0.5,0.5V34.5z"/><linearGradient id="~FIbcdVzjUHNHF~C3jhQ8d" x1="40" x2="40" y1="26.934" y2="36.136" gradientUnits="userSpaceOnUse"><stop offset="0" stop-color="#6dc7ff"/><stop offset="1" stop-color="#e6abff"/></linearGradient><path fill="url(#~FIbcdVzjUHNHF~C3jhQ8d)" d="M42.5,37H39c-1.105,0-2-0.895-2-2v-6c0-1.105,0.895-2,2-2h3.5c0.276,0,0.5,0.224,0.5,0.5v1c0,0.276-0.224,0.5-0.5,0.5H39v6h3.5c0.276,0,0.5,0.224,0.5,0.5v1C43,36.776,42.776,37,42.5,37z"/></svg>