<svg xmlns="http://www.w3.org/2000/svg" xmlns:xlink="http://www.w3.org/1999/xlink" viewBox="0 0 64 64"><linearGradient id="jyCtMQRBja_DCb_JQgEYva" x1="39" x2="39" y1="-392.583" y2="-399.478" gradientTransform="matrix(1 0 0 -1 0 -355)" gradientUnits="userSpaceOnUse"><stop offset="0" stop-color="#6dc7ff"/><stop offset="1" stop-color="#e6abff"/></linearGradient><path fill="url(#jyCtMQRBja_DCb_JQgEYva)" d="M39,38c-1.657,0-3,1.343-3,3s1.343,3,3,3s3-1.343,3-3S40.657,38,39,38z"/><linearGradient id="jyCtMQRBja_DCb_JQgEYvb" x1="25" x2="25" y1="-392.583" y2="-399.478" gradientTransform="matrix(1 0 0 -1 0 -355)" gradientUnits="userSpaceOnUse"><stop offset="0" stop-color="#6dc7ff"/><stop offset="1" stop-color="#e6abff"/></linearGradient><path fill="url(#jyCtMQRBja_DCb_JQgEYvb)" d="M25,38c-1.657,0-3,1.343-3,3s1.343,3,3,3s3-1.343,3-3S26.657,38,25,38z"/><linearGradient id="jyCtMQRBja_DCb_JQgEYvc" x1="32" x2="32" y1="-400.167" y2="-406.334" gradientTransform="matrix(1 0 0 -1 0 -355)" gradientUnits="userSpaceOnUse"><stop offset="0" stop-color="#6dc7ff"/><stop offset="1" stop-color="#e6abff"/></linearGradient><path fill="url(#jyCtMQRBja_DCb_JQgEYvc)" d="M28,47c0,2.209,1.791,4,4,4s4-1.791,4-4v-1h-8V47z"/><linearGradient id="jyCtMQRBja_DCb_JQgEYvd" x1="32" x2="32" y1="7.34" y2="56.479" gradientUnits="userSpaceOnUse"><stop offset="0" stop-color="#1a6dff"/><stop offset="1" stop-color="#c822ff"/></linearGradient><path fill="url(#jyCtMQRBja_DCb_JQgEYvd)" d="M50,32.08V30c0-4.152-1.449-8.182-4.07-11.386C45.231,11.542,39.252,6,32,6 c-7.253,0-13.234,5.545-13.93,12.619C15.449,21.824,14,25.848,14,30v2.08c-3.386,0.488-6,3.401-6,6.92c0,3.859,3.141,7,7,7v-0.137 C17.44,52.914,24.13,58,32,58s14.56-5.086,17-12.137V46c3.859,0,7-3.141,7-7C56,35.481,53.386,32.568,50,32.08z M10,39 c0-2.415,1.721-4.434,4-4.899v2.083c-1.162,0.415-2,1.514-2,2.816c0,1.336,0.884,2.458,2.094,2.845 c0.073,0.714,0.2,1.412,0.355,2.099C11.954,43.666,10,41.568,10,39z M32,8c6.617,0,12,5.383,12,12s-5.383,12-12,12s-12-5.383-12-12 S25.383,8,32,8z M48,40c0,8.822-7.178,16-16,16s-16-7.178-16-16V30c0-2.832,0.754-5.599,2.156-8.021C19.123,28.763,24.954,34,32,34 c7.047,0,12.878-5.238,13.844-12.023C47.246,24.399,48,27.169,48,30V40z M49.551,43.944c0.155-0.688,0.282-1.385,0.355-2.099 C51.116,41.458,52,40.336,52,39c0-1.302-0.838-2.401-2-2.816v-2.083c2.279,0.465,4,2.484,4,4.899 C54,41.568,52.046,43.666,49.551,43.944z"/><linearGradient id="jyCtMQRBja_DCb_JQgEYve" x1="32.5" x2="32.5" y1="7.34" y2="56.479" gradientUnits="userSpaceOnUse"><stop offset="0" stop-color="#1a6dff"/><stop offset="1" stop-color="#c822ff"/></linearGradient><path fill="url(#jyCtMQRBja_DCb_JQgEYve)" d="M31,17h3v3h-1c-1.105,0-2,0.895-2,2v1h2v-1h1c1.105,0,2-0.895,2-2v-3c0-1.105-0.895-2-2-2h-3 c-1.105,0-2,0.895-2,2v2h2V17z"/><linearGradient id="jyCtMQRBja_DCb_JQgEYvf" x1="32" x2="32" y1="7.34" y2="56.479" gradientUnits="userSpaceOnUse"><stop offset="0" stop-color="#1a6dff"/><stop offset="1" stop-color="#c822ff"/></linearGradient><rect width="2" height="2" x="31" y="24" fill="url(#jyCtMQRBja_DCb_JQgEYvf)"/><linearGradient id="jyCtMQRBja_DCb_JQgEYvg" x1="32" x2="32" y1="-363" y2="-385.772" gradientTransform="matrix(1 0 0 -1 0 -354)" gradientUnits="userSpaceOnUse"><stop offset="0" stop-color="#6dc7ff"/><stop offset="1" stop-color="#e6abff"/></linearGradient><path fill="url(#jyCtMQRBja_DCb_JQgEYvg)" d="M32,30c-5.514,0-10-4.486-10-10s4.486-10,10-10s10,4.486,10,10S37.514,30,32,30z M32,12c-4.411,0-8,3.589-8,8s3.589,8,8,8s8-3.589,8-8S36.411,12,32,12z"/></svg>