<svg xmlns="http://www.w3.org/2000/svg" xmlns:xlink="http://www.w3.org/1999/xlink" x="0" y="0" viewBox="0 0 64 64"><linearGradient id="SVGID_1_" x1="39.479" x2="39.479" y1="275.085" y2="268.888" gradientTransform="matrix(1 0 0 -1 0 317)" gradientUnits="userSpaceOnUse"><stop offset="0" stop-color="#6dc7ff"/><stop offset="1" stop-color="#e6abff"/></linearGradient><path fill="url(#SVGID_1_)" d="M46,47v-4.1c0-0.6-0.4-1-1-1H34c-0.6,0-1,0.4-1,1V47c0,0.6,0.4,1,1,1h11C45.5,48,46,47.6,46,47z"/><linearGradient id="SVGID_2_" x1="32" x2="32" y1="6.66" y2="57.047" gradientUnits="userSpaceOnUse"><stop offset="0" stop-color="#1a6dff"/><stop offset="1" stop-color="#c822ff"/></linearGradient><path fill="url(#SVGID_2_)" d="M51.1,15.7l-8.8-8.8C41.7,6.3,41,6,40.2,6H15c-1.7,0-3,1.3-3,3v46c0,1.7,1.3,3,3,3h34c1.7,0,3-1.3,3-3V17.8 C52,17,51.7,16.3,51.1,15.7z M42,9.4l6.6,6.6H43c-0.6,0-1-0.4-1-1V9.4z M50,55c0,0.6-0.4,1-1,1H15c-0.6,0-1-0.4-1-1v-1.2 c0.3,0.1,0.6,0.2,1,0.2h34c0.4,0,0.7-0.1,1-0.2V55z M50,51c0,0.6-0.4,1-1,1H15c-0.6,0-1-0.4-1-1V9c0-0.6,0.4-1,1-1h25v7 c0,1.7,1.3,3,3,3h7V51z"/><linearGradient id="SVGID_3_" x1="27" x2="27" y1="6.66" y2="57.047" gradientUnits="userSpaceOnUse"><stop offset="0" stop-color="#1a6dff"/><stop offset="1" stop-color="#c822ff"/></linearGradient><rect width="18" height="2" x="18" y="12" fill="url(#SVGID_3_)"/><linearGradient id="SVGID_4_" x1="24.5" x2="24.5" y1="6.66" y2="57.047" gradientUnits="userSpaceOnUse"><stop offset="0" stop-color="#1a6dff"/><stop offset="1" stop-color="#c822ff"/></linearGradient><rect width="13" height="2" x="18" y="16" fill="url(#SVGID_4_)"/><linearGradient id="SVGID_5_" x1="32" x2="32" y1="6.66" y2="57.047" gradientUnits="userSpaceOnUse"><stop offset="0" stop-color="#1a6dff"/><stop offset="1" stop-color="#c822ff"/></linearGradient><rect width="28" height="2" x="18" y="38" fill="url(#SVGID_5_)"/><linearGradient id="SVGID_6_" x1="24.5" x2="24.5" y1="6.66" y2="57.047" gradientUnits="userSpaceOnUse"><stop offset="0" stop-color="#1a6dff"/><stop offset="1" stop-color="#c822ff"/></linearGradient><rect width="13" height="2" x="18" y="42" fill="url(#SVGID_6_)"/><linearGradient id="SVGID_7_" x1="24.5" x2="24.5" y1="6.66" y2="57.047" gradientUnits="userSpaceOnUse"><stop offset="0" stop-color="#1a6dff"/><stop offset="1" stop-color="#c822ff"/></linearGradient><rect width="13" height="2" x="18" y="46" fill="url(#SVGID_7_)"/><linearGradient id="SVGID_8_" x1="32" x2="32" y1="6.66" y2="57.047" gradientUnits="userSpaceOnUse"><stop offset="0" stop-color="#1a6dff"/><stop offset="1" stop-color="#c822ff"/></linearGradient><path fill="url(#SVGID_8_)" d="M40,24c0,0.4,0.1,0.9,0.3,1.3l-4.8,4.2C35,29.2,34.5,29,34,29c-0.5,0-1,0.2-1.5,0.4l-2.7-2.3 c0.1-0.3,0.2-0.7,0.2-1.1c0-1.7-1.3-3-3-3s-3,1.3-3,3c0,0.4,0.1,0.7,0.2,1.1l-2.4,2.1C21.6,29.1,21.3,29,21,29c-1.7,0-3,1.3-3,3 s1.3,3,3,3s3-1.3,3-3c0-0.6-0.2-1.2-0.5-1.7l2-1.7C26,28.8,26.5,29,27,29s1-0.2,1.5-0.4l2.7,2.3C31.1,31.3,31,31.6,31,32 c0,1.7,1.3,3,3,3s3-1.3,3-3c0-0.4-0.1-0.7-0.2-1.1l4.9-4.2c0.4,0.2,0.8,0.3,1.3,0.3c1.7,0,3-1.3,3-3s-1.3-3-3-3S40,22.3,40,24z M21,33c-0.6,0-1-0.4-1-1s0.4-1,1-1s1,0.4,1,1S21.6,33,21,33z M27,27c-0.6,0-1-0.4-1-1s0.4-1,1-1s1,0.4,1,1S27.6,27,27,27z M34,33 c-0.6,0-1-0.4-1-1s0.4-1,1-1s1,0.4,1,1S34.6,33,34,33z M44,24c0,0.6-0.4,1-1,1s-1-0.4-1-1s0.4-1,1-1S44,23.4,44,24z"/></svg>