<svg xmlns="http://www.w3.org/2000/svg" xmlns:xlink="http://www.w3.org/1999/xlink" viewBox="0 0 64 64"><linearGradient id="qWmr~VqwEXCJrnFDhUQ~6a" x1="32" x2="32" y1="10.813" y2="14.193" gradientUnits="userSpaceOnUse" spreadMethod="reflect"><stop offset="0" stop-color="#6dc7ff"/><stop offset="1" stop-color="#e6abff"/></linearGradient><path fill="url(#qWmr~VqwEXCJrnFDhUQ~6a)" d="M29 11H35V14H29z"/><linearGradient id="qWmr~VqwEXCJrnFDhUQ~6b" x1="32" x2="32" y1="8.25" y2="56.253" gradientUnits="userSpaceOnUse" spreadMethod="reflect"><stop offset="0" stop-color="#1a6dff"/><stop offset="1" stop-color="#c822ff"/></linearGradient><path fill="url(#qWmr~VqwEXCJrnFDhUQ~6b)" d="M53,17H37v-5c0-1.654-1.346-3-3-3h-4c-1.654,0-3,1.346-3,3v5H11c-2.757,0-5,2.243-5,5v28 c0,2.757,2.243,5,5,5h42c2.757,0,5-2.243,5-5V22C58,19.243,55.757,17,53,17z M31,21v4h-2v-9h6v9h-2v-4H31z M27,25h-1 c-0.552,0-1-0.448-1-1s0.448-1,1-1h1V25z M37,23h1c0.552,0,1,0.448,1,1s-0.448,1-1,1h-1V23z M30,11h4c0.552,0,1,0.448,1,1v2h-6v-2 C29,11.448,29.448,11,30,11z M56,50c0,1.654-1.346,3-3,3H11c-1.654,0-3-1.346-3-3V22c0-1.654,1.346-3,3-3h16v2h-1 c-1.654,0-3,1.346-3,3s1.346,3,3,3h12c1.654,0,3-1.346,3-3s-1.346-3-3-3h-1v-2h16c1.654,0,3,1.346,3,3V50z"/><linearGradient id="qWmr~VqwEXCJrnFDhUQ~6c" x1="41" x2="41" y1="8.25" y2="56.253" gradientUnits="userSpaceOnUse" spreadMethod="reflect"><stop offset="0" stop-color="#1a6dff"/><stop offset="1" stop-color="#c822ff"/></linearGradient><path fill="url(#qWmr~VqwEXCJrnFDhUQ~6c)" d="M36 39H46V41H36z"/><linearGradient id="qWmr~VqwEXCJrnFDhUQ~6d" x1="42" x2="42" y1="8.25" y2="56.253" gradientUnits="userSpaceOnUse" spreadMethod="reflect"><stop offset="0" stop-color="#1a6dff"/><stop offset="1" stop-color="#c822ff"/></linearGradient><path fill="url(#qWmr~VqwEXCJrnFDhUQ~6d)" d="M36 35H48V37H36z"/><linearGradient id="qWmr~VqwEXCJrnFDhUQ~6e" x1="32" x2="32" y1="8.25" y2="56.253" gradientUnits="userSpaceOnUse" spreadMethod="reflect"><stop offset="0" stop-color="#1a6dff"/><stop offset="1" stop-color="#c822ff"/></linearGradient><path fill="url(#qWmr~VqwEXCJrnFDhUQ~6e)" d="M51,29H13c-1.654,0-3,1.346-3,3v16c0,1.654,1.346,3,3,3h38c1.654,0,3-1.346,3-3V32 C54,30.346,52.654,29,51,29z M26,42c0,1.654-1.346,3-3,3s-3-1.346-3-3v-2c0-1.654,1.346-3,3-3s3,1.346,3,3V42z M19.542,45.596 C20.441,46.461,21.657,47,23,47c1.343,0,2.559-0.539,3.458-1.404c0.921,0.887,1.476,2.105,1.529,3.404h-9.974 C18.065,47.702,18.621,46.484,19.542,45.596z M52,48c0,0.552-0.448,1-1,1H29.987c-0.056-1.954-0.936-3.78-2.382-5.053 C27.859,43.348,28,42.69,28,42v-2c0-2.757-2.243-5-5-5s-5,2.243-5,5v2c0,0.69,0.141,1.349,0.395,1.948 c-1.446,1.273-2.326,3.099-2.382,5.052H13c-0.552,0-1-0.448-1-1V32c0-0.552,0.448-1,1-1h38c0.552,0,1,0.448,1,1V48z"/><linearGradient id="qWmr~VqwEXCJrnFDhUQ~6f" x1="38" x2="38" y1="8.25" y2="56.253" gradientUnits="userSpaceOnUse" spreadMethod="reflect"><stop offset="0" stop-color="#1a6dff"/><stop offset="1" stop-color="#c822ff"/></linearGradient><path fill="url(#qWmr~VqwEXCJrnFDhUQ~6f)" d="M36 43H40V45H36z"/><linearGradient id="qWmr~VqwEXCJrnFDhUQ~6g" x1="44" x2="44" y1="8.25" y2="56.253" gradientUnits="userSpaceOnUse" spreadMethod="reflect"><stop offset="0" stop-color="#1a6dff"/><stop offset="1" stop-color="#c822ff"/></linearGradient><path fill="url(#qWmr~VqwEXCJrnFDhUQ~6g)" d="M42 43H46V45H42z"/></svg>