<svg xmlns="http://www.w3.org/2000/svg" xmlns:xlink="http://www.w3.org/1999/xlink" viewBox="0 0 30 30" fill="#FFFFFF">
  <path d="M15 2 A 1 1 0 0 0 14.521484 2.1230469L3.6171875 8.0761719 A 1 1 0 0 0 3 9 A 1 1 0 0 0 4 10L15 10L26 10 A 1 1 0 0 0 27 9 A 1 1 0 0 0 26.382812 8.0761719L15.472656 2.1191406 A 1 1 0 0 0 15 2 z M 15 5C15.828 5 16.5 5.672 16.5 6.5C16.5 7.328 15.828 8 15 8C14.172 8 13.5 7.328 13.5 6.5C13.5 5.672 14.172 5 15 5 z M 6 12L6 16L8 16L8 12L6 12 z M 10 12L10 16L12 16L12 12L10 12 z M 14 12L14 16L16 16L16 12L14 12 z M 18 12L18 16L20 16L20 12L18 12 z M 22 12L22 16L24 16L24 12L22 12 z M 6 18 A 1.0001 1.0001 0 1 0 6 20L6.5722656 20C5.9858008 21.479568 5 24.47462 5 28L25 28C25 24.47462 24.014199 21.479568 23.427734 20L24 20 A 1.0001 1.0001 0 1 0 24 18L6 18 z M 18 20C18.25575 20 18.511531 20.097469 18.707031 20.292969C19.098031 20.683969 19.098031 21.316031 18.707031 21.707031L14.707031 25.707031C14.512031 25.902031 14.256 26 14 26C13.744 26 13.487969 25.902031 13.292969 25.707031L11.292969 23.707031C10.901969 23.316031 10.901969 22.683969 11.292969 22.292969C11.683969 21.901969 12.316031 21.901969 12.707031 22.292969L14 23.585938L17.292969 20.292969C17.488469 20.097469 17.74425 20 18 20 z" fill="#FFFFFF" />
</svg>