<svg xmlns="http://www.w3.org/2000/svg" xmlns:xlink="http://www.w3.org/1999/xlink" viewBox="0 0 64 64"><linearGradient id="XkwF4OG8u3IxlTU4vo2tma" x1="48" x2="48" y1="15.875" y2="20.252" gradientUnits="userSpaceOnUse" spreadMethod="reflect"><stop offset="0" stop-color="#6dc7ff"/><stop offset="1" stop-color="#e6abff"/></linearGradient><path fill="url(#XkwF4OG8u3IxlTU4vo2tma)" d="M45,20h6v-3c0-0.552-0.448-1-1-1h-4c-0.552,0-1,0.448-1,1V20z"/><linearGradient id="XkwF4OG8u3IxlTU4vo2tmb" x1="32" x2="32" y1="7.5" y2="57.245" gradientUnits="userSpaceOnUse" spreadMethod="reflect"><stop offset="0" stop-color="#1a6dff"/><stop offset="1" stop-color="#c822ff"/></linearGradient><path fill="url(#XkwF4OG8u3IxlTU4vo2tmb)" d="M55,8H41c-1.654,0-3,1.346-3,3v3.184C37.686,14.072,37.352,14,37,14H25c-1.654,0-3,1.346-3,3 v7.184C21.686,24.072,21.352,24,21,24H9c-1.654,0-3,1.346-3,3v26c0,1.654,1.346,3,3,3h12c0.771,0,1.468-0.301,2-0.78 c0.532,0.48,1.229,0.78,2,0.78h12c0.771,0,1.468-0.301,2-0.78c0.532,0.48,1.229,0.78,2,0.78h14c1.654,0,3-1.346,3-3V11 C58,9.346,56.654,8,55,8z M22,50H8V30h14V50z M9,26h12c0.552,0,1,0.449,1,1v1H8v-1C8,26.449,8.448,26,9,26z M21,54H9 c-0.552,0-1-0.449-1-1v-1h14v1C22,53.551,21.552,54,21,54z M37,54H25c-0.552,0-1-0.449-1-1V27V17c0-0.551,0.448-1,1-1h12 c0.552,0,1,0.449,1,1v36C38,53.551,37.552,54,37,54z M56,53c0,0.551-0.448,1-1,1H41c-0.552,0-1-0.449-1-1V17v-6c0-0.551,0.448-1,1-1 h14c0.552,0,1,0.449,1,1V53z"/><linearGradient id="XkwF4OG8u3IxlTU4vo2tmc" x1="13" x2="13" y1="7.5" y2="57.245" gradientUnits="userSpaceOnUse" spreadMethod="reflect"><stop offset="0" stop-color="#1a6dff"/><stop offset="1" stop-color="#c822ff"/></linearGradient><path fill="url(#XkwF4OG8u3IxlTU4vo2tmc)" d="M12 32H14V48H12z"/><linearGradient id="XkwF4OG8u3IxlTU4vo2tmd" x1="17" x2="17" y1="7.5" y2="57.245" gradientUnits="userSpaceOnUse" spreadMethod="reflect"><stop offset="0" stop-color="#1a6dff"/><stop offset="1" stop-color="#c822ff"/></linearGradient><path fill="url(#XkwF4OG8u3IxlTU4vo2tmd)" d="M16 32H18V48H16z"/><linearGradient id="XkwF4OG8u3IxlTU4vo2tme" x1="31" x2="31" y1="7.5" y2="57.245" gradientUnits="userSpaceOnUse" spreadMethod="reflect"><stop offset="0" stop-color="#1a6dff"/><stop offset="1" stop-color="#c822ff"/></linearGradient><path fill="url(#XkwF4OG8u3IxlTU4vo2tme)" d="M26 50H36V52H26z"/><linearGradient id="XkwF4OG8u3IxlTU4vo2tmf" x1="31" x2="31" y1="7.5" y2="57.245" gradientUnits="userSpaceOnUse" spreadMethod="reflect"><stop offset="0" stop-color="#1a6dff"/><stop offset="1" stop-color="#c822ff"/></linearGradient><path fill="url(#XkwF4OG8u3IxlTU4vo2tmf)" d="M26 18H36V20H26z"/><linearGradient id="XkwF4OG8u3IxlTU4vo2tmg" x1="29" x2="29" y1="7.5" y2="57.245" gradientUnits="userSpaceOnUse" spreadMethod="reflect"><stop offset="0" stop-color="#1a6dff"/><stop offset="1" stop-color="#c822ff"/></linearGradient><path fill="url(#XkwF4OG8u3IxlTU4vo2tmg)" d="M28 36H30V48H28z"/><linearGradient id="XkwF4OG8u3IxlTU4vo2tmh" x1="33" x2="33" y1="7.5" y2="57.245" gradientUnits="userSpaceOnUse" spreadMethod="reflect"><stop offset="0" stop-color="#1a6dff"/><stop offset="1" stop-color="#c822ff"/></linearGradient><path fill="url(#XkwF4OG8u3IxlTU4vo2tmh)" d="M32 36H34V48H32z"/><linearGradient id="XkwF4OG8u3IxlTU4vo2tmi" x1="33" x2="33" y1="7.5" y2="57.245" gradientUnits="userSpaceOnUse" spreadMethod="reflect"><stop offset="0" stop-color="#1a6dff"/><stop offset="1" stop-color="#c822ff"/></linearGradient><path fill="url(#XkwF4OG8u3IxlTU4vo2tmi)" d="M32 22H34V34H32z"/><linearGradient id="XkwF4OG8u3IxlTU4vo2tmj" x1="29" x2="29" y1="7.5" y2="57.245" gradientUnits="userSpaceOnUse" spreadMethod="reflect"><stop offset="0" stop-color="#1a6dff"/><stop offset="1" stop-color="#c822ff"/></linearGradient><path fill="url(#XkwF4OG8u3IxlTU4vo2tmj)" d="M28 22H30V34H28z"/><linearGradient id="XkwF4OG8u3IxlTU4vo2tmk" x1="48" x2="48" y1="7.5" y2="57.245" gradientUnits="userSpaceOnUse" spreadMethod="reflect"><stop offset="0" stop-color="#1a6dff"/><stop offset="1" stop-color="#c822ff"/></linearGradient><path fill="url(#XkwF4OG8u3IxlTU4vo2tmk)" d="M42 12H54V14H42z"/><linearGradient id="XkwF4OG8u3IxlTU4vo2tml" x1="48" x2="48" y1="7.5" y2="57.245" gradientUnits="userSpaceOnUse" spreadMethod="reflect"><stop offset="0" stop-color="#1a6dff"/><stop offset="1" stop-color="#c822ff"/></linearGradient><path fill="url(#XkwF4OG8u3IxlTU4vo2tml)" d="M42 50H54V52H42z"/><linearGradient id="XkwF4OG8u3IxlTU4vo2tmm" x1="46" x2="46" y1="7.5" y2="57.245" gradientUnits="userSpaceOnUse" spreadMethod="reflect"><stop offset="0" stop-color="#1a6dff"/><stop offset="1" stop-color="#c822ff"/></linearGradient><path fill="url(#XkwF4OG8u3IxlTU4vo2tmm)" d="M45 22H47V42H45z"/><linearGradient id="XkwF4OG8u3IxlTU4vo2tmn" x1="50" x2="50" y1="7.5" y2="57.245" gradientUnits="userSpaceOnUse" spreadMethod="reflect"><stop offset="0" stop-color="#1a6dff"/><stop offset="1" stop-color="#c822ff"/></linearGradient><path fill="url(#XkwF4OG8u3IxlTU4vo2tmn)" d="M49 22H51V42H49z"/><linearGradient id="XkwF4OG8u3IxlTU4vo2tmo" x1="48" x2="48" y1="44" y2="48.133" gradientUnits="userSpaceOnUse" spreadMethod="reflect"><stop offset="0" stop-color="#6dc7ff"/><stop offset="1" stop-color="#e6abff"/></linearGradient><path fill="url(#XkwF4OG8u3IxlTU4vo2tmo)" d="M46,48h4c0.552,0,1-0.448,1-1v-3h-6v3C45,47.552,45.448,48,46,48z"/></svg>