<svg xmlns="http://www.w3.org/2000/svg" xmlns:xlink="http://www.w3.org/1999/xlink" viewBox="0 0 50 50" fill="#2A7700">
  <path d="M3 3C2.449219 3 2 3.449219 2 4L2 22C2 22.550781 2.449219 23 3 23L47 23C47.554688 23 48 22.550781 48 22L48 4C48 3.449219 47.554688 3 47 3 Z M 10 11C11.105469 11 12 11.894531 12 13C12 14.105469 11.105469 15 10 15C8.894531 15 8 14.105469 8 13C8 11.894531 8.894531 11 10 11 Z M 20 11C21.105469 11 22 11.894531 22 13C22 14.105469 21.105469 15 20 15C18.894531 15 18 14.105469 18 13C18 11.894531 18.894531 11 20 11 Z M 30 11C31.105469 11 32 11.894531 32 13C32 14.105469 31.105469 15 30 15C28.894531 15 28 14.105469 28 13C28 11.894531 28.894531 11 30 11 Z M 40 11C41.105469 11 42 11.894531 42 13C42 14.105469 41.105469 15 40 15C38.894531 15 38 14.105469 38 13C38 11.894531 38.894531 11 40 11 Z M 25 27C19.484375 27 15 31.484375 15 37C15 42.515625 19.484375 47 25 47C30.515625 47 35 42.515625 35 37C35 31.484375 30.515625 27 25 27 Z M 28.34375 32.15625L30.03125 33.25L24.5 41.9375L20.125 37.9375L21.46875 36.46875L24.09375 38.84375Z" fill="#2A7700" />
</svg>