<svg xmlns="http://www.w3.org/2000/svg" xmlns:xlink="http://www.w3.org/1999/xlink" x="0" y="0" viewBox="0 0 128 128"><path fill="#444b54" d="M17,124c0-26,21-41,47-41s47,15,47,41H17z"/><path fill="#fff" d="M94,4v26c0,16.6-13.4,35-30,35S34,46.6,34,30V4H94z"/><path fill="#fff" d="M40.4,87.8l21.5,21.5c1.2,1.2,3.1,1.2,4.2,0l21.5-21.5l-23.6-6L40.4,87.8z"/><path fill="#444b54" d="M111,127H17c-1.7,0-3-1.3-3-3c0-25.9,20.6-44,50-44s50,18.1,50,44C114,125.7,112.7,127,111,127z M20.1,121 h87.8c-1.4-17.9-15.1-35-43.9-35S21.5,103.1,20.1,121z"/><path fill="#444b54" d="M119,1H9C7.3,1,6,2.3,6,4v30c0,1.7,1.3,3,3,3s3-1.3,3-3V7h19v17c0,1.7,1.3,3,3,3h57v3c0,14.5-12,32-27,32 c-11.2,0-20.2-9.6-24.3-19.2c-0.6-1.5-2.4-2.2-3.9-1.6c-1.5,0.6-2.2,2.4-1.6,3.9C40.1,59,51.8,68,64,68c18.6,0,33-20.4,33-38V7h22 c1.7,0,3-1.3,3-3S120.7,1,119,1z"/></svg>