<svg xmlns="http://www.w3.org/2000/svg" xmlns:xlink="http://www.w3.org/1999/xlink" viewBox="0 0 64 64"><linearGradient id="S7ZW1QJnGMLmsMLSHvgj8a" x1="32" x2="32" y1="5.894" y2="15.851" gradientUnits="userSpaceOnUse"><stop offset="0" stop-color="#6dc7ff"/><stop offset="1" stop-color="#e6abff"/></linearGradient><path fill="url(#S7ZW1QJnGMLmsMLSHvgj8a)" d="M35.5,17h-7v-6.5C28.5,8.567,30.067,7,32,7h0c1.933,0,3.5,1.567,3.5,3.5V17z"/><linearGradient id="S7ZW1QJnGMLmsMLSHvgj8b" x1="28.021" x2="28.021" y1="5.383" y2="58.725" gradientUnits="userSpaceOnUse"><stop offset="0" stop-color="#1a6dff"/><stop offset="1" stop-color="#c822ff"/></linearGradient><rect width="17.957" height="2" x="19.043" y="33" fill="url(#S7ZW1QJnGMLmsMLSHvgj8b)"/><linearGradient id="S7ZW1QJnGMLmsMLSHvgj8c" x1="24.499" x2="24.499" y1="5.383" y2="58.725" gradientUnits="userSpaceOnUse"><stop offset="0" stop-color="#1a6dff"/><stop offset="1" stop-color="#c822ff"/></linearGradient><rect width="10.912" height="2" x="19.043" y="37" fill="url(#S7ZW1QJnGMLmsMLSHvgj8c)"/><linearGradient id="S7ZW1QJnGMLmsMLSHvgj8d" x1="28.021" x2="28.021" y1="5.383" y2="58.725" gradientUnits="userSpaceOnUse"><stop offset="0" stop-color="#1a6dff"/><stop offset="1" stop-color="#c822ff"/></linearGradient><rect width="17.957" height="2" x="19.043" y="42" fill="url(#S7ZW1QJnGMLmsMLSHvgj8d)"/><linearGradient id="S7ZW1QJnGMLmsMLSHvgj8e" x1="24.499" x2="24.499" y1="5.383" y2="58.725" gradientUnits="userSpaceOnUse"><stop offset="0" stop-color="#1a6dff"/><stop offset="1" stop-color="#c822ff"/></linearGradient><rect width="10.912" height="2" x="19.043" y="46" fill="url(#S7ZW1QJnGMLmsMLSHvgj8e)"/><linearGradient id="S7ZW1QJnGMLmsMLSHvgj8f" x1="28.021" x2="28.021" y1="5.383" y2="58.725" gradientUnits="userSpaceOnUse"><stop offset="0" stop-color="#1a6dff"/><stop offset="1" stop-color="#c822ff"/></linearGradient><rect width="17.957" height="2" x="19.043" y="24" fill="url(#S7ZW1QJnGMLmsMLSHvgj8f)"/><linearGradient id="S7ZW1QJnGMLmsMLSHvgj8g" x1="43.5" x2="43.5" y1="5.383" y2="58.725" gradientUnits="userSpaceOnUse"><stop offset="0" stop-color="#1a6dff"/><stop offset="1" stop-color="#c822ff"/></linearGradient><rect width="3" height="2" x="42" y="33" fill="url(#S7ZW1QJnGMLmsMLSHvgj8g)"/><linearGradient id="S7ZW1QJnGMLmsMLSHvgj8h" x1="43.5" x2="43.5" y1="5.383" y2="58.725" gradientUnits="userSpaceOnUse"><stop offset="0" stop-color="#1a6dff"/><stop offset="1" stop-color="#c822ff"/></linearGradient><rect width="3" height="2" x="42" y="42" fill="url(#S7ZW1QJnGMLmsMLSHvgj8h)"/><linearGradient id="S7ZW1QJnGMLmsMLSHvgj8i" x1="43.5" x2="43.5" y1="5.383" y2="58.725" gradientUnits="userSpaceOnUse"><stop offset="0" stop-color="#1a6dff"/><stop offset="1" stop-color="#c822ff"/></linearGradient><rect width="3" height="2" x="42" y="24" fill="url(#S7ZW1QJnGMLmsMLSHvgj8i)"/><linearGradient id="S7ZW1QJnGMLmsMLSHvgj8j" x1="24.499" x2="24.499" y1="5.383" y2="58.725" gradientUnits="userSpaceOnUse"><stop offset="0" stop-color="#1a6dff"/><stop offset="1" stop-color="#c822ff"/></linearGradient><rect width="10.912" height="2" x="19.043" y="28" fill="url(#S7ZW1QJnGMLmsMLSHvgj8j)"/><linearGradient id="S7ZW1QJnGMLmsMLSHvgj8k" x1="32" x2="32" y1="5.383" y2="58.725" gradientUnits="userSpaceOnUse"><stop offset="0" stop-color="#1a6dff"/><stop offset="1" stop-color="#c822ff"/></linearGradient><path fill="url(#S7ZW1QJnGMLmsMLSHvgj8k)" d="M49,12.184V12c0-1.654-1.346-3-3-3h-7h-2.776C35.602,7.258,33.953,6,32,6 s-3.602,1.258-4.224,3H18c-1.654,0-3,1.346-3,3v0.184c-1.162,0.415-2,1.514-2,2.816v40c0,1.654,1.346,3,3,3h32c1.654,0,3-1.346,3-3 V15C51,13.698,50.162,12.599,49,12.184z M46,11c0.552,0,1,0.448,1,1h-8h-2.5v-1H39H46z M29.5,10.5C29.5,9.121,30.621,8,32,8 s2.5,1.121,2.5,2.5V16h-5V10.5z M18,11h9.5v1H17C17,11.448,17.448,11,18,11z M49,55c0,0.552-0.448,1-1,1h-4v-4c0-0.552,0.448-1,1-1 h4V55z M49,49h-4c-1.654,0-3,1.346-3,3v4H16c-0.552,0-1-0.448-1-1V15c0-0.552,0.448-1,1-1h11.5v4h9v-4H39h9c0.552,0,1,0.448,1,1V49 z"/></svg>