<svg xmlns="http://www.w3.org/2000/svg" xmlns:xlink="http://www.w3.org/1999/xlink" viewBox="0 0 128 128"><path fill="#fff" d="M114 54L14 54 4 74 4 124 124 124 124 74z"/><path fill="#d3d8dd" d="M24 74L14 54 52 54 62 74zM100 74L100 54 114 54 124 74z"/><path fill="#444b54" d="M4,77c-0.5,0-0.9-0.1-1.3-0.3c-1.5-0.7-2.1-2.5-1.3-4l10-20c0.7-1.5,2.5-2.1,4-1.3c1.5,0.7,2.1,2.5,1.3,4l-10,20C6.2,76.4,5.1,77,4,77z"/><path fill="#d3d8dd" d="M62 4L87 4 76 24 52 24z"/><path fill="#444b54" d="M126.9,73.4C126.9,73.4,126.9,73.4,126.9,73.4c-0.1-0.3-0.1-0.5-0.2-0.7c0,0,0,0,0-0.1l-10-20c-0.5-1-1.5-1.7-2.7-1.7H14c-1,0-1,0.5-1.6,1.4c-0.5,0.9-1.6,2-1.1,2.9L21,74.7V121H7V74c0-1.7-1.3-2-3-2s-3,0.3-3,2v50c0,1.7,1.3,3,3,3h120c1.7,0,3-1.3,3-3V74C127,73.8,127,73.6,126.9,73.4z M112.1,57l7,14H25.9l-7-14H112.1z M27,77h94v44H27V77z"/><path fill="#fff" d="M100 24L100 121 62 121 62 74 52 54 52 24 62 4 90 4z"/><path fill="#444b54" d="M88,102L88,102c-1.1,0-2,0.9-2,2v20h4v-20C90,102.9,89.1,102,88,102z"/><path fill="#444b54" d="M90,127h-4c-1.7,0-3-1.3-3-3v-20c0-2.8,2.2-5,5-5s5,2.2,5,5v20C93,125.7,91.7,127,90,127z"/><path fill="#d3d8dd" d="M88,44L88,44c-0.6,0-1,0.9-1,2v40h2V46C89,44.9,88.6,44,88,44z"/><path fill="#d3d8dd" d="M89 89h-2c-1.7 0-3-1.3-3-3V46c0-2.9 1.7-5 4-5s4 2.1 4 5v40C92 87.7 90.7 89 89 89zM88 31.5c-2.2 0-4-1.8-4-4v-1c0-2.2 1.8-4 4-4s4 1.8 4 4v1C92 29.7 90.2 31.5 88 31.5zM36.5 92h-2v-5c0-.6.4-1 1-1l0 0c.6 0 1 .4 1 1V92z"/><path fill="#d3d8dd" d="M36.5 95h-2c-1.7 0-3-1.3-3-3v-5c0-2.2 1.8-4 4-4s4 1.8 4 4v5C39.5 93.7 38.2 95 36.5 95zM50.5 92h-2v-5c0-.6.4-1 1-1l0 0c.6 0 1 .4 1 1V92z"/><path fill="#d3d8dd" d="M50.5,95h-2c-1.7,0-3-1.3-3-3v-5c0-2.2,1.8-4,4-4s4,1.8,4,4v5C53.5,93.7,52.2,95,50.5,95z"/><path fill="#444b54" d="M102.7,22.7l-10-20C92.2,1.6,91.1,1,90,1H62c-1.1,0-2.2,0.6-2.7,1.7l-10,20C49.1,23.1,49,23.5,49,24v30c0,0.5,0.1,0.9,0.3,1.3L59,74.7V124c0,1.7,1.3,1,3,1s3,0.7,3-1V74c0-0.5-0.1-0.9-0.3-1.3L55,53.3V27h18v97c0,1.7,1.3,1,3,1h24c1.7,0,3,0.7,3-1V24C103,23.5,102.9,23.1,102.7,22.7z M63.9,7h17.3l-7,14H56.9L63.9,7z M97,121H79V24.7L87.9,7h0.3L97,24.7V121z"/><g><path fill="#d3d8dd" d="M36.5,112h-2v-5c0-0.6,0.4-1,1-1l0,0c0.6,0,1,0.4,1,1V112z"/><path fill="#d3d8dd" d="M36.5,115h-2c-1.7,0-3-1.3-3-3v-5c0-2.2,1.8-4,4-4s4,1.8,4,4v5C39.5,113.7,38.2,115,36.5,115z"/></g><g><path fill="#d3d8dd" d="M50.5,112h-2v-5c0-0.6,0.4-1,1-1l0,0c0.6,0,1,0.4,1,1V112z"/><path fill="#d3d8dd" d="M50.5,115h-2c-1.7,0-3-1.3-3-3v-5c0-2.2,1.8-4,4-4s4,1.8,4,4v5C53.5,113.7,52.2,115,50.5,115z"/></g><g><path fill="#d3d8dd" d="M112.5,92h-2v-5c0-0.6,0.4-1,1-1l0,0c0.6,0,1,0.4,1,1V92z"/><path fill="#d3d8dd" d="M112.5,95h-2c-1.7,0-3-1.3-3-3v-5c0-2.2,1.8-4,4-4s4,1.8,4,4v5C115.5,93.7,114.2,95,112.5,95z"/></g><g><path fill="#d3d8dd" d="M112.5,112h-2v-5c0-0.6,0.4-1,1-1l0,0c0.6,0,1,0.4,1,1V112z"/><path fill="#d3d8dd" d="M112.5,115h-2c-1.7,0-3-1.3-3-3v-5c0-2.2,1.8-4,4-4s4,1.8,4,4v5C115.5,113.7,114.2,115,112.5,115z"/></g></svg>